<mxfile host="app.diagrams.net" modified="2022-11-29T00:16:04.386Z" agent="5.0 (Windows NT 10.0; Win64; x64) AppleWebKit/537.36 (KHTML, like Gecko) Chrome/107.0.0.0 Safari/537.36" etag="FY7NHfKPzaGtnCpETj0w" version="20.6.0" type="github" pages="6">
  <diagram id="ZQ_5J2CHFgrV61spP5Iu" name="Page-1">
    <mxGraphModel dx="2249" dy="1923" grid="1" gridSize="10" guides="1" tooltips="1" connect="1" arrows="1" fold="1" page="1" pageScale="1" pageWidth="827" pageHeight="1169" math="0" shadow="0">
      <root>
        <mxCell id="0" />
        <mxCell id="1" parent="0" />
        <mxCell id="yRUjxfShGHyIUCz7xi06-26" style="edgeStyle=orthogonalEdgeStyle;rounded=0;orthogonalLoop=1;jettySize=auto;html=1;entryX=0.5;entryY=0;entryDx=0;entryDy=0;" parent="1" source="yRUjxfShGHyIUCz7xi06-1" target="yRUjxfShGHyIUCz7xi06-2" edge="1">
          <mxGeometry relative="1" as="geometry" />
        </mxCell>
        <mxCell id="yRUjxfShGHyIUCz7xi06-1" value="&lt;font style=&quot;font-size: 24px&quot;&gt;DÉBUT&lt;/font&gt;" style="ellipse;whiteSpace=wrap;html=1;aspect=fixed;strokeColor=#82b366;fillColor=#D3E8D1;" parent="1" vertex="1">
          <mxGeometry x="40" y="-40" width="90" height="90" as="geometry" />
        </mxCell>
        <mxCell id="yRUjxfShGHyIUCz7xi06-27" style="edgeStyle=orthogonalEdgeStyle;rounded=0;orthogonalLoop=1;jettySize=auto;html=1;entryX=0.5;entryY=0;entryDx=0;entryDy=0;" parent="1" source="yRUjxfShGHyIUCz7xi06-2" target="yRUjxfShGHyIUCz7xi06-3" edge="1">
          <mxGeometry relative="1" as="geometry" />
        </mxCell>
        <mxCell id="yRUjxfShGHyIUCz7xi06-2" value="&lt;font style=&quot;font-size: 18px&quot;&gt;Créer le fichier csv contenant les données climatiques pour chaque séquence à étudier&lt;br&gt;&lt;/font&gt;" style="rounded=1;whiteSpace=wrap;html=1;strokeColor=#666666;fontColor=#333333;fillColor=#BEF5BA;" parent="1" vertex="1">
          <mxGeometry x="-15" y="90" width="200" height="90" as="geometry" />
        </mxCell>
        <mxCell id="yRUjxfShGHyIUCz7xi06-29" value="" style="edgeStyle=orthogonalEdgeStyle;rounded=0;orthogonalLoop=1;jettySize=auto;html=1;" parent="1" source="yRUjxfShGHyIUCz7xi06-3" target="yRUjxfShGHyIUCz7xi06-4" edge="1">
          <mxGeometry relative="1" as="geometry">
            <Array as="points">
              <mxPoint x="85" y="330" />
              <mxPoint x="85" y="330" />
            </Array>
          </mxGeometry>
        </mxCell>
        <mxCell id="yRUjxfShGHyIUCz7xi06-3" value="&lt;font style=&quot;font-size: 18px&quot;&gt;Lancer l&#39;outil pour créer les arbres issus des données climatiques avec &quot;make tree&quot;&lt;/font&gt;" style="rounded=1;whiteSpace=wrap;html=1;strokeColor=#666666;fontColor=#333333;fillColor=#BEF5BA;" parent="1" vertex="1">
          <mxGeometry x="-15" y="200" width="200" height="90" as="geometry" />
        </mxCell>
        <mxCell id="yRUjxfShGHyIUCz7xi06-30" style="edgeStyle=orthogonalEdgeStyle;rounded=0;orthogonalLoop=1;jettySize=auto;html=1;entryX=0.5;entryY=0;entryDx=0;entryDy=0;" parent="1" source="yRUjxfShGHyIUCz7xi06-4" target="yRUjxfShGHyIUCz7xi06-5" edge="1">
          <mxGeometry relative="1" as="geometry" />
        </mxCell>
        <mxCell id="yRUjxfShGHyIUCz7xi06-4" value="&lt;font style=&quot;font-size: 18px&quot;&gt;Validation des colonnes entrées en paramètre&lt;/font&gt;" style="rounded=1;whiteSpace=wrap;html=1;strokeColor=#666666;fontColor=#333333;fillColor=#BEF5BA;" parent="1" vertex="1">
          <mxGeometry x="-15" y="310" width="200" height="90" as="geometry" />
        </mxCell>
        <mxCell id="yRUjxfShGHyIUCz7xi06-31" style="edgeStyle=orthogonalEdgeStyle;rounded=0;orthogonalLoop=1;jettySize=auto;html=1;entryX=0.5;entryY=0;entryDx=0;entryDy=0;" parent="1" source="yRUjxfShGHyIUCz7xi06-5" target="yRUjxfShGHyIUCz7xi06-6" edge="1">
          <mxGeometry relative="1" as="geometry" />
        </mxCell>
        <mxCell id="yRUjxfShGHyIUCz7xi06-5" value="&lt;font style=&quot;font-size: 18px&quot;&gt;Arbres issus des données climatiques dans dossier courant&lt;/font&gt;" style="rounded=1;whiteSpace=wrap;html=1;strokeColor=#666666;fontColor=#333333;fillColor=#BEF5BA;" parent="1" vertex="1">
          <mxGeometry x="-15" y="420" width="200" height="90" as="geometry" />
        </mxCell>
        <mxCell id="yRUjxfShGHyIUCz7xi06-32" style="edgeStyle=orthogonalEdgeStyle;rounded=0;orthogonalLoop=1;jettySize=auto;html=1;entryX=0.5;entryY=0;entryDx=0;entryDy=0;" parent="1" source="yRUjxfShGHyIUCz7xi06-6" target="yRUjxfShGHyIUCz7xi06-7" edge="1">
          <mxGeometry relative="1" as="geometry" />
        </mxCell>
        <mxCell id="yRUjxfShGHyIUCz7xi06-6" value="&lt;font style=&quot;font-size: 18px&quot;&gt;Placer les séquences génétiques dans le dossier data&lt;/font&gt;" style="rounded=1;whiteSpace=wrap;html=1;fillColor=#60a917;strokeColor=#2D7600;fontColor=#ffffff;" parent="1" vertex="1">
          <mxGeometry x="-15" y="530" width="200" height="90" as="geometry" />
        </mxCell>
        <mxCell id="yRUjxfShGHyIUCz7xi06-34" style="edgeStyle=orthogonalEdgeStyle;rounded=0;orthogonalLoop=1;jettySize=auto;html=1;entryX=0.5;entryY=0;entryDx=0;entryDy=0;" parent="1" source="yRUjxfShGHyIUCz7xi06-7" target="yRUjxfShGHyIUCz7xi06-8" edge="1">
          <mxGeometry relative="1" as="geometry" />
        </mxCell>
        <mxCell id="yRUjxfShGHyIUCz7xi06-7" value="&lt;span style=&quot;font-size: 18px&quot;&gt;Lancer le programme avec &quot;make&quot;&lt;/span&gt;" style="rounded=1;whiteSpace=wrap;html=1;fillColor=#60a917;strokeColor=#2D7600;fontColor=#ffffff;" parent="1" vertex="1">
          <mxGeometry x="-15" y="640" width="200" height="90" as="geometry" />
        </mxCell>
        <mxCell id="yRUjxfShGHyIUCz7xi06-35" style="edgeStyle=orthogonalEdgeStyle;rounded=0;orthogonalLoop=1;jettySize=auto;html=1;entryX=0.5;entryY=0;entryDx=0;entryDy=0;" parent="1" source="yRUjxfShGHyIUCz7xi06-8" target="yRUjxfShGHyIUCz7xi06-9" edge="1">
          <mxGeometry relative="1" as="geometry" />
        </mxCell>
        <mxCell id="yRUjxfShGHyIUCz7xi06-8" value="&lt;span style=&quot;font-size: 18px&quot;&gt;Validation des paramètres d&#39;entrée du programme&lt;/span&gt;" style="rounded=1;whiteSpace=wrap;html=1;fillColor=#60a917;strokeColor=#2D7600;fontColor=#ffffff;" parent="1" vertex="1">
          <mxGeometry x="-15" y="750" width="200" height="90" as="geometry" />
        </mxCell>
        <mxCell id="yRUjxfShGHyIUCz7xi06-36" value="" style="edgeStyle=orthogonalEdgeStyle;rounded=0;orthogonalLoop=1;jettySize=auto;html=1;" parent="1" source="yRUjxfShGHyIUCz7xi06-9" target="yRUjxfShGHyIUCz7xi06-10" edge="1">
          <mxGeometry relative="1" as="geometry" />
        </mxCell>
        <mxCell id="yRUjxfShGHyIUCz7xi06-9" value="&lt;span style=&quot;font-size: 18px&quot;&gt;Paquet Phylip&lt;/span&gt;" style="rounded=1;whiteSpace=wrap;html=1;fillColor=#60a917;strokeColor=#2D7600;fontColor=#ffffff;" parent="1" vertex="1">
          <mxGeometry x="-15" y="1030" width="200" height="90" as="geometry" />
        </mxCell>
        <mxCell id="yRUjxfShGHyIUCz7xi06-37" style="edgeStyle=orthogonalEdgeStyle;rounded=0;orthogonalLoop=1;jettySize=auto;html=1;entryX=0.5;entryY=0;entryDx=0;entryDy=0;" parent="1" source="yRUjxfShGHyIUCz7xi06-10" target="yRUjxfShGHyIUCz7xi06-12" edge="1">
          <mxGeometry relative="1" as="geometry" />
        </mxCell>
        <mxCell id="yRUjxfShGHyIUCz7xi06-38" value="valeur bootstrap &amp;gt;= bootstrap seuil" style="edgeLabel;html=1;align=center;verticalAlign=middle;resizable=0;points=[];" parent="yRUjxfShGHyIUCz7xi06-37" vertex="1" connectable="0">
          <mxGeometry x="-0.0667" y="-2" relative="1" as="geometry">
            <mxPoint as="offset" />
          </mxGeometry>
        </mxCell>
        <mxCell id="yRUjxfShGHyIUCz7xi06-49" style="edgeStyle=orthogonalEdgeStyle;rounded=0;orthogonalLoop=1;jettySize=auto;html=1;" parent="1" source="yRUjxfShGHyIUCz7xi06-10" target="yRUjxfShGHyIUCz7xi06-11" edge="1">
          <mxGeometry relative="1" as="geometry" />
        </mxCell>
        <mxCell id="yRUjxfShGHyIUCz7xi06-50" value="valeur bootstrap&lt;br&gt;&amp;lt; bootstrap seuil" style="edgeLabel;html=1;align=center;verticalAlign=middle;resizable=0;points=[];" parent="yRUjxfShGHyIUCz7xi06-49" vertex="1" connectable="0">
          <mxGeometry x="0.0078" y="-2" relative="1" as="geometry">
            <mxPoint as="offset" />
          </mxGeometry>
        </mxCell>
        <mxCell id="yRUjxfShGHyIUCz7xi06-10" value="&lt;span style=&quot;font-size: 18px&quot;&gt;Calcul du bootstrap de l&#39;arbre consensus issu de l&#39;ASM&lt;/span&gt;" style="rounded=1;whiteSpace=wrap;html=1;fillColor=#60a917;strokeColor=#2D7600;fontColor=#ffffff;" parent="1" vertex="1">
          <mxGeometry x="-15" y="1140" width="200" height="90" as="geometry" />
        </mxCell>
        <mxCell id="yRUjxfShGHyIUCz7xi06-51" style="edgeStyle=orthogonalEdgeStyle;rounded=0;orthogonalLoop=1;jettySize=auto;html=1;" parent="1" source="yRUjxfShGHyIUCz7xi06-11" target="yRUjxfShGHyIUCz7xi06-9" edge="1">
          <mxGeometry relative="1" as="geometry">
            <Array as="points">
              <mxPoint x="440" y="1075" />
            </Array>
          </mxGeometry>
        </mxCell>
        <mxCell id="yRUjxfShGHyIUCz7xi06-52" value="ASM suivant existe" style="edgeLabel;html=1;align=center;verticalAlign=middle;resizable=0;points=[];" parent="yRUjxfShGHyIUCz7xi06-51" vertex="1" connectable="0">
          <mxGeometry x="0.2313" relative="1" as="geometry">
            <mxPoint as="offset" />
          </mxGeometry>
        </mxCell>
        <mxCell id="yRUjxfShGHyIUCz7xi06-59" style="edgeStyle=orthogonalEdgeStyle;rounded=0;orthogonalLoop=1;jettySize=auto;html=1;entryX=1;entryY=0.5;entryDx=0;entryDy=0;" parent="1" source="yRUjxfShGHyIUCz7xi06-11" target="yRUjxfShGHyIUCz7xi06-46" edge="1">
          <mxGeometry relative="1" as="geometry">
            <Array as="points">
              <mxPoint x="520" y="2005" />
            </Array>
          </mxGeometry>
        </mxCell>
        <mxCell id="yRUjxfShGHyIUCz7xi06-60" value="pas d&#39;ASM&lt;br&gt;suivant" style="edgeLabel;html=1;align=center;verticalAlign=middle;resizable=0;points=[];" parent="yRUjxfShGHyIUCz7xi06-59" vertex="1" connectable="0">
          <mxGeometry x="-0.9109" y="-4" relative="1" as="geometry">
            <mxPoint as="offset" />
          </mxGeometry>
        </mxCell>
        <mxCell id="yRUjxfShGHyIUCz7xi06-11" value="&lt;span style=&quot;font-size: 18px&quot;&gt;Supprimer l&#39;ASM et les fichiers correspondants&lt;/span&gt;" style="rounded=1;whiteSpace=wrap;html=1;fillColor=#60a917;strokeColor=#2D7600;fontColor=#ffffff;" parent="1" vertex="1">
          <mxGeometry x="340" y="1140" width="200" height="90" as="geometry" />
        </mxCell>
        <mxCell id="yRUjxfShGHyIUCz7xi06-39" style="edgeStyle=orthogonalEdgeStyle;rounded=0;orthogonalLoop=1;jettySize=auto;html=1;entryX=0.5;entryY=0;entryDx=0;entryDy=0;" parent="1" source="yRUjxfShGHyIUCz7xi06-12" target="yRUjxfShGHyIUCz7xi06-13" edge="1">
          <mxGeometry relative="1" as="geometry" />
        </mxCell>
        <mxCell id="yRUjxfShGHyIUCz7xi06-40" value="distance RF &amp;lt;= distance RF seuil" style="edgeLabel;html=1;align=center;verticalAlign=middle;resizable=0;points=[];" parent="yRUjxfShGHyIUCz7xi06-39" vertex="1" connectable="0">
          <mxGeometry x="-0.1" relative="1" as="geometry">
            <mxPoint as="offset" />
          </mxGeometry>
        </mxCell>
        <mxCell id="yRUjxfShGHyIUCz7xi06-53" style="edgeStyle=orthogonalEdgeStyle;rounded=0;orthogonalLoop=1;jettySize=auto;html=1;" parent="1" source="yRUjxfShGHyIUCz7xi06-12" edge="1">
          <mxGeometry relative="1" as="geometry">
            <mxPoint x="430" y="1230" as="targetPoint" />
            <Array as="points">
              <mxPoint x="430" y="1335" />
              <mxPoint x="430" y="1230" />
            </Array>
          </mxGeometry>
        </mxCell>
        <mxCell id="yRUjxfShGHyIUCz7xi06-54" value="distance RF &amp;gt; distance RF seuil" style="edgeLabel;html=1;align=center;verticalAlign=middle;resizable=0;points=[];" parent="yRUjxfShGHyIUCz7xi06-53" vertex="1" connectable="0">
          <mxGeometry x="-0.4722" y="1" relative="1" as="geometry">
            <mxPoint x="40" y="1" as="offset" />
          </mxGeometry>
        </mxCell>
        <mxCell id="yRUjxfShGHyIUCz7xi06-12" value="&lt;span style=&quot;font-size: 18px&quot;&gt;Calcul de la distance RF entre l&#39;arbre consensus et les arbres climatiques&lt;/span&gt;" style="rounded=1;whiteSpace=wrap;html=1;fillColor=#60a917;strokeColor=#2D7600;fontColor=#ffffff;" parent="1" vertex="1">
          <mxGeometry x="-15" y="1290" width="200" height="90" as="geometry" />
        </mxCell>
        <mxCell id="yRUjxfShGHyIUCz7xi06-41" style="edgeStyle=orthogonalEdgeStyle;rounded=0;orthogonalLoop=1;jettySize=auto;html=1;entryX=0.5;entryY=0;entryDx=0;entryDy=0;" parent="1" source="yRUjxfShGHyIUCz7xi06-13" target="yRUjxfShGHyIUCz7xi06-14" edge="1">
          <mxGeometry relative="1" as="geometry" />
        </mxCell>
        <mxCell id="yRUjxfShGHyIUCz7xi06-13" value="&lt;span style=&quot;font-size: 18px&quot;&gt;Lancement de RAxML avec cet ASM&lt;/span&gt;" style="rounded=1;whiteSpace=wrap;html=1;fillColor=#60a917;strokeColor=#2D7600;fontColor=#ffffff;" parent="1" vertex="1">
          <mxGeometry x="-15" y="1440" width="200" height="90" as="geometry" />
        </mxCell>
        <mxCell id="yRUjxfShGHyIUCz7xi06-42" style="edgeStyle=orthogonalEdgeStyle;rounded=0;orthogonalLoop=1;jettySize=auto;html=1;entryX=0.5;entryY=0;entryDx=0;entryDy=0;" parent="1" source="yRUjxfShGHyIUCz7xi06-14" target="yRUjxfShGHyIUCz7xi06-15" edge="1">
          <mxGeometry relative="1" as="geometry" />
        </mxCell>
        <mxCell id="yRUjxfShGHyIUCz7xi06-43" value="valeur bootstrap &amp;gt;= bootstrap seuil" style="edgeLabel;html=1;align=center;verticalAlign=middle;resizable=0;points=[];" parent="yRUjxfShGHyIUCz7xi06-42" vertex="1" connectable="0">
          <mxGeometry x="-0.0667" y="-4" relative="1" as="geometry">
            <mxPoint as="offset" />
          </mxGeometry>
        </mxCell>
        <mxCell id="yRUjxfShGHyIUCz7xi06-55" style="edgeStyle=orthogonalEdgeStyle;rounded=0;orthogonalLoop=1;jettySize=auto;html=1;" parent="1" source="yRUjxfShGHyIUCz7xi06-14" edge="1">
          <mxGeometry relative="1" as="geometry">
            <mxPoint x="450" y="1231" as="targetPoint" />
            <Array as="points">
              <mxPoint x="450" y="1595" />
              <mxPoint x="450" y="1231" />
            </Array>
          </mxGeometry>
        </mxCell>
        <mxCell id="yRUjxfShGHyIUCz7xi06-56" value="valeur bootstrap &amp;lt; bootstrap seuil" style="edgeLabel;html=1;align=center;verticalAlign=middle;resizable=0;points=[];" parent="yRUjxfShGHyIUCz7xi06-55" vertex="1" connectable="0">
          <mxGeometry x="-0.6258" y="2" relative="1" as="geometry">
            <mxPoint x="23" y="2" as="offset" />
          </mxGeometry>
        </mxCell>
        <mxCell id="yRUjxfShGHyIUCz7xi06-14" value="&lt;span style=&quot;font-size: 18px&quot;&gt;Calcul du bootstrap de l&#39;arbre consensus de RAxML&lt;/span&gt;" style="rounded=1;whiteSpace=wrap;html=1;fillColor=#60a917;strokeColor=#2D7600;fontColor=#ffffff;" parent="1" vertex="1">
          <mxGeometry x="-15" y="1550" width="200" height="90" as="geometry" />
        </mxCell>
        <mxCell id="yRUjxfShGHyIUCz7xi06-44" style="edgeStyle=orthogonalEdgeStyle;rounded=0;orthogonalLoop=1;jettySize=auto;html=1;entryX=0.5;entryY=0;entryDx=0;entryDy=0;" parent="1" source="yRUjxfShGHyIUCz7xi06-15" target="yRUjxfShGHyIUCz7xi06-16" edge="1">
          <mxGeometry relative="1" as="geometry" />
        </mxCell>
        <mxCell id="yRUjxfShGHyIUCz7xi06-45" value="distance RV &amp;lt;= distance RF seuil" style="edgeLabel;html=1;align=center;verticalAlign=middle;resizable=0;points=[];" parent="yRUjxfShGHyIUCz7xi06-44" vertex="1" connectable="0">
          <mxGeometry x="-0.1" relative="1" as="geometry">
            <mxPoint x="1" as="offset" />
          </mxGeometry>
        </mxCell>
        <mxCell id="yRUjxfShGHyIUCz7xi06-57" style="edgeStyle=orthogonalEdgeStyle;rounded=0;orthogonalLoop=1;jettySize=auto;html=1;" parent="1" source="yRUjxfShGHyIUCz7xi06-15" edge="1">
          <mxGeometry relative="1" as="geometry">
            <mxPoint x="470" y="1230" as="targetPoint" />
            <Array as="points">
              <mxPoint x="470" y="1745" />
              <mxPoint x="470" y="1230" />
            </Array>
          </mxGeometry>
        </mxCell>
        <mxCell id="yRUjxfShGHyIUCz7xi06-58" value="distance RF &amp;gt; distance RF seuil" style="edgeLabel;html=1;align=center;verticalAlign=middle;resizable=0;points=[];" parent="yRUjxfShGHyIUCz7xi06-57" vertex="1" connectable="0">
          <mxGeometry x="-0.8025" y="2" relative="1" as="geometry">
            <mxPoint x="55" y="2" as="offset" />
          </mxGeometry>
        </mxCell>
        <mxCell id="yRUjxfShGHyIUCz7xi06-15" value="&lt;span style=&quot;font-size: 18px&quot;&gt;Calcul de la distance RF entre l&#39;arbre consensus et les arbres climatiques&lt;/span&gt;" style="rounded=1;whiteSpace=wrap;html=1;fillColor=#60a917;strokeColor=#2D7600;fontColor=#ffffff;" parent="1" vertex="1">
          <mxGeometry x="-15" y="1700" width="200" height="90" as="geometry" />
        </mxCell>
        <mxCell id="yRUjxfShGHyIUCz7xi06-47" style="edgeStyle=orthogonalEdgeStyle;rounded=0;orthogonalLoop=1;jettySize=auto;html=1;entryX=0.5;entryY=0;entryDx=0;entryDy=0;" parent="1" source="yRUjxfShGHyIUCz7xi06-16" target="yRUjxfShGHyIUCz7xi06-46" edge="1">
          <mxGeometry relative="1" as="geometry" />
        </mxCell>
        <mxCell id="yRUjxfShGHyIUCz7xi06-16" value="&lt;span style=&quot;font-size: 18px&quot;&gt;Garder l&#39;ASM et les fichier dans le dossier respectif et ajouter les info dans le fichier output.csv&lt;/span&gt;" style="rounded=1;whiteSpace=wrap;html=1;fillColor=#60a917;strokeColor=#2D7600;fontColor=#ffffff;" parent="1" vertex="1">
          <mxGeometry x="-22.5" y="1840" width="215" height="100" as="geometry" />
        </mxCell>
        <mxCell id="yRUjxfShGHyIUCz7xi06-17" value="" style="strokeWidth=2;html=1;shape=mxgraph.flowchart.annotation_2;align=left;labelPosition=right;pointerEvents=1;rotation=-180;" parent="1" vertex="1">
          <mxGeometry x="-75" y="560" width="50" height="470" as="geometry" />
        </mxCell>
        <mxCell id="yRUjxfShGHyIUCz7xi06-18" value="&lt;font style=&quot;font-size: 14px&quot;&gt;Nombre d&#39;arbres issus des données climatiques&lt;/font&gt;" style="whiteSpace=wrap;html=1;strokeColor=#d6b656;fillColor=#26FFB0;" parent="1" vertex="1">
          <mxGeometry x="-220" y="555" width="130" height="60" as="geometry" />
        </mxCell>
        <mxCell id="yRUjxfShGHyIUCz7xi06-19" value="&lt;font style=&quot;font-size: 14px&quot;&gt;Noms des arbres climatiques&lt;/font&gt;" style="whiteSpace=wrap;html=1;strokeColor=#d6b656;fillColor=#26FFB0;" parent="1" vertex="1">
          <mxGeometry x="-220" y="625" width="130" height="60" as="geometry" />
        </mxCell>
        <mxCell id="yRUjxfShGHyIUCz7xi06-20" value="&lt;span style=&quot;font-size: 14px&quot;&gt;Bootstrap seuil&lt;/span&gt;" style="whiteSpace=wrap;html=1;strokeColor=#d6b656;fillColor=#26FFB0;" parent="1" vertex="1">
          <mxGeometry x="-220" y="695" width="130" height="60" as="geometry" />
        </mxCell>
        <mxCell id="yRUjxfShGHyIUCz7xi06-21" value="&lt;font style=&quot;font-size: 14px&quot;&gt;Distance RF seuil&lt;/font&gt;" style="whiteSpace=wrap;html=1;strokeColor=#d6b656;fillColor=#26FFB0;" parent="1" vertex="1">
          <mxGeometry x="-220" y="765" width="130" height="60" as="geometry" />
        </mxCell>
        <mxCell id="yRUjxfShGHyIUCz7xi06-22" value="&lt;span style=&quot;font-size: 14px&quot;&gt;Taille de la fenêtre coulissante&lt;/span&gt;" style="whiteSpace=wrap;html=1;strokeColor=#d6b656;fillColor=#26FFB0;" parent="1" vertex="1">
          <mxGeometry x="-220" y="835" width="130" height="60" as="geometry" />
        </mxCell>
        <mxCell id="yRUjxfShGHyIUCz7xi06-23" value="&lt;font style=&quot;font-size: 14px&quot;&gt;Pas de la fenêtre&lt;/font&gt;" style="whiteSpace=wrap;html=1;strokeColor=#d6b656;fillColor=#26FFB0;" parent="1" vertex="1">
          <mxGeometry x="-220" y="905" width="130" height="60" as="geometry" />
        </mxCell>
        <mxCell id="yRUjxfShGHyIUCz7xi06-24" value="&lt;font style=&quot;font-size: 14px&quot;&gt;Choix du/des gène(s) à étudier&lt;/font&gt;" style="whiteSpace=wrap;html=1;strokeColor=#d6b656;fillColor=#26FFB0;" parent="1" vertex="1">
          <mxGeometry x="-220" y="975" width="130" height="60" as="geometry" />
        </mxCell>
        <mxCell id="yRUjxfShGHyIUCz7xi06-46" value="&lt;span style=&quot;font-size: 24px&quot;&gt;FIN&lt;/span&gt;" style="ellipse;whiteSpace=wrap;html=1;aspect=fixed;fillColor=#f8cecc;strokeColor=#b85450;" parent="1" vertex="1">
          <mxGeometry x="40" y="1960" width="90" height="90" as="geometry" />
        </mxCell>
        <mxCell id="fQx-nFCOjSMi0LGkXyse-1" value="Légende" style="swimlane;fontStyle=0;childLayout=stackLayout;horizontal=1;startSize=26;horizontalStack=0;resizeParent=1;resizeParentMax=0;resizeLast=0;collapsible=1;marginBottom=0;" parent="1" vertex="1">
          <mxGeometry x="260" y="85" width="360" height="100" as="geometry" />
        </mxCell>
        <mxCell id="fQx-nFCOjSMi0LGkXyse-2" value="Étapes pour la création des arbres issus des données climatiques" style="text;strokeColor=#666666;align=left;verticalAlign=top;spacingLeft=4;spacingRight=4;overflow=hidden;rotatable=0;points=[[0,0.5],[1,0.5]];portConstraint=eastwest;fontColor=#333333;fillColor=#B9F5A7;" parent="fQx-nFCOjSMi0LGkXyse-1" vertex="1">
          <mxGeometry y="26" width="360" height="26" as="geometry" />
        </mxCell>
        <mxCell id="fQx-nFCOjSMi0LGkXyse-3" value="Étapes pour la création des arbres phylogénétiques" style="text;strokeColor=#d79b00;align=left;verticalAlign=top;spacingLeft=4;spacingRight=4;overflow=hidden;rotatable=0;points=[[0,0.5],[1,0.5]];portConstraint=eastwest;fillColor=#26FFB0;" parent="fQx-nFCOjSMi0LGkXyse-1" vertex="1">
          <mxGeometry y="52" width="360" height="26" as="geometry" />
        </mxCell>
        <mxCell id="fQx-nFCOjSMi0LGkXyse-4" value="Paramètres qui sont validés" style="text;strokeColor=#2D7600;fillColor=#60a917;align=left;verticalAlign=top;spacingLeft=4;spacingRight=4;overflow=hidden;rotatable=0;points=[[0,0.5],[1,0.5]];portConstraint=eastwest;fontColor=#ffffff;" parent="fQx-nFCOjSMi0LGkXyse-1" vertex="1">
          <mxGeometry y="78" width="360" height="22" as="geometry" />
        </mxCell>
      </root>
    </mxGraphModel>
  </diagram>
  <diagram id="43QNRrQkuy5S_R5MGL4-" name="Page-2">
    <mxGraphModel dx="2272" dy="1854" grid="1" gridSize="10" guides="1" tooltips="1" connect="1" arrows="1" fold="1" page="1" pageScale="1" pageWidth="850" pageHeight="1100" math="0" shadow="0">
      <root>
        <mxCell id="Q7fzbbWbQliHNp1XzF6x-0" />
        <mxCell id="Q7fzbbWbQliHNp1XzF6x-1" parent="Q7fzbbWbQliHNp1XzF6x-0" />
        <mxCell id="Q7fzbbWbQliHNp1XzF6x-2" style="edgeStyle=orthogonalEdgeStyle;rounded=0;orthogonalLoop=1;jettySize=auto;html=1;entryX=0.5;entryY=0;entryDx=0;entryDy=0;" parent="Q7fzbbWbQliHNp1XzF6x-1" target="Q7fzbbWbQliHNp1XzF6x-9" edge="1">
          <mxGeometry relative="1" as="geometry">
            <mxPoint x="-210.04000000000002" y="30" as="sourcePoint" />
            <mxPoint x="-210.04000000000002" y="50" as="targetPoint" />
          </mxGeometry>
        </mxCell>
        <mxCell id="Q7fzbbWbQliHNp1XzF6x-8" style="edgeStyle=orthogonalEdgeStyle;rounded=0;orthogonalLoop=1;jettySize=auto;html=1;entryX=0.474;entryY=0;entryDx=0;entryDy=0;entryPerimeter=0;" parent="Q7fzbbWbQliHNp1XzF6x-1" target="Q7fzbbWbQliHNp1XzF6x-11" edge="1">
          <mxGeometry relative="1" as="geometry">
            <mxPoint x="-210" y="160" as="sourcePoint" />
            <Array as="points">
              <mxPoint x="-210" y="230" />
            </Array>
          </mxGeometry>
        </mxCell>
        <mxCell id="Q7fzbbWbQliHNp1XzF6x-9" value="&lt;font style=&quot;font-size: 18px&quot;&gt;Validation des paramètres&lt;/font&gt;" style="rounded=1;whiteSpace=wrap;html=1;strokeColor=#666666;fontColor=#333333;fillColor=#BEF5BA;" parent="Q7fzbbWbQliHNp1XzF6x-1" vertex="1">
          <mxGeometry x="-310" y="70" width="200" height="90" as="geometry" />
        </mxCell>
        <mxCell id="Q7fzbbWbQliHNp1XzF6x-11" value="&lt;font style=&quot;font-size: 18px&quot;&gt;Création des arbres issus des données climatiques&lt;/font&gt;" style="rounded=1;whiteSpace=wrap;html=1;strokeColor=#666666;fontColor=#333333;fillColor=#BEF5BA;" parent="Q7fzbbWbQliHNp1XzF6x-1" vertex="1">
          <mxGeometry x="-305" y="230" width="200" height="90" as="geometry" />
        </mxCell>
        <mxCell id="Q7fzbbWbQliHNp1XzF6x-16" style="edgeStyle=orthogonalEdgeStyle;rounded=0;orthogonalLoop=1;jettySize=auto;html=1;entryX=0.5;entryY=0;entryDx=0;entryDy=0;exitX=0.5;exitY=1;exitDx=0;exitDy=0;" parent="Q7fzbbWbQliHNp1XzF6x-1" source="R9qOdBa61c9OX_-5L8GD-18" target="Q7fzbbWbQliHNp1XzF6x-19" edge="1">
          <mxGeometry relative="1" as="geometry">
            <mxPoint x="285" y="373" as="sourcePoint" />
          </mxGeometry>
        </mxCell>
        <mxCell id="Q7fzbbWbQliHNp1XzF6x-17" value="&lt;span style=&quot;font-size: 18px&quot;&gt;Validation des paramètres d&#39;entrée du programme&lt;/span&gt;" style="rounded=1;whiteSpace=wrap;html=1;fillColor=#60a917;strokeColor=#2D7600;fontColor=#ffffff;" parent="Q7fzbbWbQliHNp1XzF6x-1" vertex="1">
          <mxGeometry x="185" y="70" width="200" height="90" as="geometry" />
        </mxCell>
        <mxCell id="Q7fzbbWbQliHNp1XzF6x-18" value="" style="edgeStyle=orthogonalEdgeStyle;rounded=0;orthogonalLoop=1;jettySize=auto;html=1;exitX=0.5;exitY=1;exitDx=0;exitDy=0;" parent="Q7fzbbWbQliHNp1XzF6x-1" source="Q7fzbbWbQliHNp1XzF6x-19" target="Q7fzbbWbQliHNp1XzF6x-24" edge="1">
          <mxGeometry relative="1" as="geometry">
            <Array as="points">
              <mxPoint x="285" y="668" />
            </Array>
          </mxGeometry>
        </mxCell>
        <mxCell id="R9qOdBa61c9OX_-5L8GD-33" style="edgeStyle=orthogonalEdgeStyle;rounded=0;orthogonalLoop=1;jettySize=auto;html=1;fontFamily=Helvetica;fontSize=18;" parent="Q7fzbbWbQliHNp1XzF6x-1" source="Q7fzbbWbQliHNp1XzF6x-24" edge="1">
          <mxGeometry relative="1" as="geometry">
            <mxPoint x="275" y="740" as="targetPoint" />
          </mxGeometry>
        </mxCell>
        <mxCell id="Q7fzbbWbQliHNp1XzF6x-24" value="&lt;span style=&quot;font-size: 18px&quot;&gt;Calcul du bootstrap de l&#39;arbre consensus issu de l&#39;ASM&lt;/span&gt;" style="rounded=1;whiteSpace=wrap;html=1;fillColor=#60a917;strokeColor=#2D7600;fontColor=#ffffff;" parent="Q7fzbbWbQliHNp1XzF6x-1" vertex="1">
          <mxGeometry x="175" y="613" width="200" height="90" as="geometry" />
        </mxCell>
        <mxCell id="Q7fzbbWbQliHNp1XzF6x-27" style="edgeStyle=orthogonalEdgeStyle;rounded=0;orthogonalLoop=1;jettySize=auto;html=1;exitX=1;exitY=0.5;exitDx=0;exitDy=0;entryX=0.994;entryY=0.567;entryDx=0;entryDy=0;entryPerimeter=0;" parent="Q7fzbbWbQliHNp1XzF6x-1" source="R9qOdBa61c9OX_-5L8GD-15" target="Q7fzbbWbQliHNp1XzF6x-24" edge="1">
          <mxGeometry relative="1" as="geometry">
            <Array as="points">
              <mxPoint x="560" y="780" />
              <mxPoint x="560" y="664" />
            </Array>
            <mxPoint x="460.0044827586207" y="863.03" as="sourcePoint" />
            <mxPoint x="564.97" y="650.03" as="targetPoint" />
          </mxGeometry>
        </mxCell>
        <mxCell id="Q7fzbbWbQliHNp1XzF6x-28" value="suivant" style="edgeLabel;html=1;align=center;verticalAlign=middle;resizable=0;points=[];fontSize=18;" parent="Q7fzbbWbQliHNp1XzF6x-27" vertex="1" connectable="0">
          <mxGeometry x="-0.9109" y="-4" relative="1" as="geometry">
            <mxPoint x="96" y="-64" as="offset" />
          </mxGeometry>
        </mxCell>
        <mxCell id="R9qOdBa61c9OX_-5L8GD-31" style="edgeStyle=orthogonalEdgeStyle;rounded=0;orthogonalLoop=1;jettySize=auto;html=1;entryX=0.5;entryY=0;entryDx=0;entryDy=0;fontFamily=Helvetica;fontSize=18;" parent="Q7fzbbWbQliHNp1XzF6x-1" source="Q7fzbbWbQliHNp1XzF6x-34" target="R9qOdBa61c9OX_-5L8GD-27" edge="1">
          <mxGeometry relative="1" as="geometry" />
        </mxCell>
        <mxCell id="Q7fzbbWbQliHNp1XzF6x-34" value="&lt;span style=&quot;font-size: 18px&quot;&gt;Calcul de la distance RF entre l&#39;arbre consensus et les arbres climatiques&lt;/span&gt;" style="rounded=1;whiteSpace=wrap;html=1;fillColor=#60a917;strokeColor=#2D7600;fontColor=#ffffff;" parent="Q7fzbbWbQliHNp1XzF6x-1" vertex="1">
          <mxGeometry x="-310" y="850" width="200" height="90" as="geometry" />
        </mxCell>
        <mxCell id="R9qOdBa61c9OX_-5L8GD-35" style="edgeStyle=orthogonalEdgeStyle;rounded=0;orthogonalLoop=1;jettySize=auto;html=1;fontFamily=Helvetica;fontSize=18;" parent="Q7fzbbWbQliHNp1XzF6x-1" source="Q7fzbbWbQliHNp1XzF6x-36" target="Q7fzbbWbQliHNp1XzF6x-41" edge="1">
          <mxGeometry relative="1" as="geometry" />
        </mxCell>
        <mxCell id="Q7fzbbWbQliHNp1XzF6x-36" value="&lt;span style=&quot;font-size: 18px&quot;&gt;Création de l&#39;arbre phylogénétique le plus parcimonieux&lt;/span&gt;" style="rounded=1;whiteSpace=wrap;html=1;fillColor=#60a917;strokeColor=#2D7600;fontColor=#ffffff;" parent="Q7fzbbWbQliHNp1XzF6x-1" vertex="1">
          <mxGeometry x="-310" y="1130" width="200" height="90" as="geometry" />
        </mxCell>
        <mxCell id="R9qOdBa61c9OX_-5L8GD-40" style="edgeStyle=orthogonalEdgeStyle;rounded=0;orthogonalLoop=1;jettySize=auto;html=1;entryX=0.5;entryY=0;entryDx=0;entryDy=0;fontFamily=Helvetica;fontSize=18;" parent="Q7fzbbWbQliHNp1XzF6x-1" source="Q7fzbbWbQliHNp1XzF6x-41" target="R9qOdBa61c9OX_-5L8GD-36" edge="1">
          <mxGeometry relative="1" as="geometry" />
        </mxCell>
        <mxCell id="Q7fzbbWbQliHNp1XzF6x-41" value="&lt;span style=&quot;font-size: 18px&quot;&gt;Calcul du bootstrap&amp;nbsp;&lt;/span&gt;" style="rounded=1;whiteSpace=wrap;html=1;fillColor=#60a917;strokeColor=#2D7600;fontColor=#ffffff;" parent="Q7fzbbWbQliHNp1XzF6x-1" vertex="1">
          <mxGeometry x="-310.01" y="1260" width="200" height="90" as="geometry" />
        </mxCell>
        <mxCell id="Q7fzbbWbQliHNp1XzF6x-47" style="edgeStyle=orthogonalEdgeStyle;rounded=0;orthogonalLoop=1;jettySize=auto;html=1;entryX=0.083;entryY=0.484;entryDx=0;entryDy=0;entryPerimeter=0;" parent="Q7fzbbWbQliHNp1XzF6x-1" source="Q7fzbbWbQliHNp1XzF6x-48" target="Q7fzbbWbQliHNp1XzF6x-66" edge="1">
          <mxGeometry relative="1" as="geometry">
            <mxPoint x="85" y="1960" as="targetPoint" />
          </mxGeometry>
        </mxCell>
        <mxCell id="Q7fzbbWbQliHNp1XzF6x-48" value="&lt;span style=&quot;font-size: 18px&quot;&gt;Garder l&#39;ASM et les fichier dans le dossier respectif et ajouter les info dans le fichier output.csv&lt;/span&gt;" style="rounded=1;whiteSpace=wrap;html=1;fillColor=#60a917;strokeColor=#2D7600;fontColor=#ffffff;" parent="Q7fzbbWbQliHNp1XzF6x-1" vertex="1">
          <mxGeometry x="-318.75" y="1540" width="215" height="100" as="geometry" />
        </mxCell>
        <mxCell id="Q7fzbbWbQliHNp1XzF6x-49" value="" style="strokeWidth=2;html=1;shape=mxgraph.flowchart.annotation_2;align=left;labelPosition=right;pointerEvents=1;rotation=-90;direction=south;" parent="Q7fzbbWbQliHNp1XzF6x-1" vertex="1">
          <mxGeometry x="288.07" y="444.09000000000003" width="270.45" height="83.38" as="geometry" />
        </mxCell>
        <mxCell id="Q7fzbbWbQliHNp1XzF6x-58" value="Légende" style="swimlane;fontStyle=0;childLayout=stackLayout;horizontal=1;startSize=26;horizontalStack=0;resizeParent=1;resizeParentMax=0;resizeLast=0;collapsible=1;marginBottom=0;" parent="Q7fzbbWbQliHNp1XzF6x-1" vertex="1">
          <mxGeometry x="450" y="-100" width="360" height="100" as="geometry" />
        </mxCell>
        <mxCell id="Q7fzbbWbQliHNp1XzF6x-59" value="Étapes pour la création des arbres issus des données climatiques" style="text;strokeColor=#666666;align=left;verticalAlign=top;spacingLeft=4;spacingRight=4;overflow=hidden;rotatable=0;points=[[0,0.5],[1,0.5]];portConstraint=eastwest;fontColor=#333333;fillColor=#B9F5A7;" parent="Q7fzbbWbQliHNp1XzF6x-58" vertex="1">
          <mxGeometry y="26" width="360" height="26" as="geometry" />
        </mxCell>
        <mxCell id="Q7fzbbWbQliHNp1XzF6x-60" value="Étapes pour la création des arbres phylogénétiques" style="text;strokeColor=#d79b00;align=left;verticalAlign=top;spacingLeft=4;spacingRight=4;overflow=hidden;rotatable=0;points=[[0,0.5],[1,0.5]];portConstraint=eastwest;fillColor=#26FFB0;" parent="Q7fzbbWbQliHNp1XzF6x-58" vertex="1">
          <mxGeometry y="52" width="360" height="26" as="geometry" />
        </mxCell>
        <mxCell id="Q7fzbbWbQliHNp1XzF6x-61" value="Paramètres qui sont validés" style="text;strokeColor=#2D7600;fillColor=#60a917;align=left;verticalAlign=top;spacingLeft=4;spacingRight=4;overflow=hidden;rotatable=0;points=[[0,0.5],[1,0.5]];portConstraint=eastwest;fontColor=#ffffff;" parent="Q7fzbbWbQliHNp1XzF6x-58" vertex="1">
          <mxGeometry y="78" width="360" height="22" as="geometry" />
        </mxCell>
        <mxCell id="Q7fzbbWbQliHNp1XzF6x-62" value="Début" style="ellipse;shape=cloud;fillColor=#26FFB0;fontSize=18;fontFamily=Helvetica;" parent="Q7fzbbWbQliHNp1XzF6x-1" vertex="1">
          <mxGeometry x="-305" y="-80" width="175" height="120" as="geometry" />
        </mxCell>
        <mxCell id="Q7fzbbWbQliHNp1XzF6x-66" value="Fin" style="ellipse;shape=cloud;fillColor=#26FFB0;fontSize=18;fontFamily=Helvetica;" parent="Q7fzbbWbQliHNp1XzF6x-1" vertex="1">
          <mxGeometry x="-10" y="1620" width="175" height="120" as="geometry" />
        </mxCell>
        <mxCell id="Q7fzbbWbQliHNp1XzF6x-19" value="&lt;span style=&quot;font-size: 18px&quot;&gt;Paquet Phylip&lt;/span&gt;" style="rounded=1;whiteSpace=wrap;html=1;fillColor=#60a917;strokeColor=#2D7600;fontColor=#ffffff;" parent="Q7fzbbWbQliHNp1XzF6x-1" vertex="1">
          <mxGeometry x="185" y="443" width="200" height="90" as="geometry" />
        </mxCell>
        <mxCell id="R9qOdBa61c9OX_-5L8GD-1" value="Neightor" style="shape=step;perimeter=stepPerimeter;whiteSpace=wrap;html=1;fixedSize=1;fontFamily=Helvetica;fontSize=18;fillColor=#a0522d;strokeColor=#6D1F00;fontColor=#ffffff;" parent="Q7fzbbWbQliHNp1XzF6x-1" vertex="1">
          <mxGeometry x="480" y="563" width="120" height="50" as="geometry" />
        </mxCell>
        <mxCell id="R9qOdBa61c9OX_-5L8GD-3" value="Consense" style="shape=step;perimeter=stepPerimeter;whiteSpace=wrap;html=1;fixedSize=1;fontFamily=Helvetica;fontSize=18;fillColor=#a0522d;strokeColor=#6D1F00;fontColor=#ffffff;" parent="Q7fzbbWbQliHNp1XzF6x-1" vertex="1">
          <mxGeometry x="480" y="353" width="120" height="50" as="geometry" />
        </mxCell>
        <mxCell id="R9qOdBa61c9OX_-5L8GD-5" value="dnaDist or protDist" style="shape=step;perimeter=stepPerimeter;whiteSpace=wrap;html=1;fixedSize=1;fontFamily=Helvetica;fontSize=18;fillColor=#a0522d;strokeColor=#6D1F00;fontColor=#ffffff;" parent="Q7fzbbWbQliHNp1XzF6x-1" vertex="1">
          <mxGeometry x="480" y="496" width="120" height="50" as="geometry" />
        </mxCell>
        <mxCell id="R9qOdBa61c9OX_-5L8GD-8" style="edgeStyle=orthogonalEdgeStyle;rounded=0;orthogonalLoop=1;jettySize=auto;html=1;exitX=0.5;exitY=1;exitDx=0;exitDy=0;fontFamily=Helvetica;fontSize=18;fillColor=#a0522d;strokeColor=#6D1F00;" parent="Q7fzbbWbQliHNp1XzF6x-1" source="R9qOdBa61c9OX_-5L8GD-3" target="R9qOdBa61c9OX_-5L8GD-3" edge="1">
          <mxGeometry relative="1" as="geometry" />
        </mxCell>
        <mxCell id="R9qOdBa61c9OX_-5L8GD-10" value="SeqBoot" style="shape=step;perimeter=stepPerimeter;whiteSpace=wrap;html=1;fixedSize=1;fontFamily=Helvetica;fontSize=18;fillColor=#a0522d;strokeColor=#6D1F00;fontColor=#ffffff;" parent="Q7fzbbWbQliHNp1XzF6x-1" vertex="1">
          <mxGeometry x="480" y="426" width="120" height="50" as="geometry" />
        </mxCell>
        <mxCell id="R9qOdBa61c9OX_-5L8GD-34" style="edgeStyle=orthogonalEdgeStyle;rounded=0;orthogonalLoop=1;jettySize=auto;html=1;entryX=1;entryY=0.5;entryDx=0;entryDy=0;fontFamily=Helvetica;fontSize=18;" parent="Q7fzbbWbQliHNp1XzF6x-1" source="R9qOdBa61c9OX_-5L8GD-15" target="Q7fzbbWbQliHNp1XzF6x-34" edge="1">
          <mxGeometry relative="1" as="geometry" />
        </mxCell>
        <mxCell id="R9qOdBa61c9OX_-5L8GD-15" value="&lt;span style=&quot;font-size: 18px&quot;&gt;valeur bootstrap&amp;nbsp;&lt;/span&gt;&lt;span style=&quot;font-size: 18px&quot;&gt;&amp;gt; bootstrap seuil&lt;/span&gt;" style="rhombus;whiteSpace=wrap;html=1;fontFamily=Helvetica;fontSize=18;fillColor=#60a917;strokeColor=#2D7600;fontColor=#ffffff;" parent="Q7fzbbWbQliHNp1XzF6x-1" vertex="1">
          <mxGeometry x="106.25" y="740" width="337.5" height="80" as="geometry" />
        </mxCell>
        <mxCell id="R9qOdBa61c9OX_-5L8GD-18" value="&lt;span style=&quot;font-size: 18px&quot;&gt;Alignement Multiple de Séquences (ASM)&lt;br&gt;&lt;/span&gt;" style="rounded=1;whiteSpace=wrap;html=1;fillColor=#60a917;strokeColor=#2D7600;fontColor=#ffffff;" parent="Q7fzbbWbQliHNp1XzF6x-1" vertex="1">
          <mxGeometry x="185" y="230" width="200" height="90" as="geometry" />
        </mxCell>
        <mxCell id="R9qOdBa61c9OX_-5L8GD-19" style="edgeStyle=orthogonalEdgeStyle;rounded=0;orthogonalLoop=1;jettySize=auto;html=1;exitX=0.5;exitY=1;exitDx=0;exitDy=0;" parent="Q7fzbbWbQliHNp1XzF6x-1" source="Q7fzbbWbQliHNp1XzF6x-17" edge="1">
          <mxGeometry relative="1" as="geometry">
            <mxPoint x="295" y="335" as="sourcePoint" />
            <mxPoint x="285" y="230" as="targetPoint" />
          </mxGeometry>
        </mxCell>
        <mxCell id="R9qOdBa61c9OX_-5L8GD-20" value="Muscle" style="shape=step;perimeter=stepPerimeter;whiteSpace=wrap;html=1;fixedSize=1;fontFamily=Helvetica;fontSize=18;fillColor=#a0522d;strokeColor=#6D1F00;fontColor=#ffffff;" parent="Q7fzbbWbQliHNp1XzF6x-1" vertex="1">
          <mxGeometry x="480" y="250" width="120" height="50" as="geometry" />
        </mxCell>
        <mxCell id="R9qOdBa61c9OX_-5L8GD-23" value="" style="edgeStyle=orthogonalEdgeStyle;rounded=0;orthogonalLoop=1;jettySize=auto;html=1;entryX=0.003;entryY=0.596;entryDx=0;entryDy=0;entryPerimeter=0;" parent="Q7fzbbWbQliHNp1XzF6x-1" target="Q7fzbbWbQliHNp1XzF6x-19" edge="1">
          <mxGeometry relative="1" as="geometry">
            <mxPoint x="180" y="280" as="sourcePoint" />
            <mxPoint x="160" y="678" as="targetPoint" />
            <Array as="points">
              <mxPoint x="30" y="280" />
              <mxPoint x="30" y="497" />
            </Array>
          </mxGeometry>
        </mxCell>
        <mxCell id="R9qOdBa61c9OX_-5L8GD-24" value="&lt;span style=&quot;font-size: 18px&quot;&gt;Fenêtre coulissante sur l&#39;ASM&lt;/span&gt;" style="rounded=1;whiteSpace=wrap;html=1;fillColor=#60a917;strokeColor=#2D7600;fontColor=#ffffff;" parent="Q7fzbbWbQliHNp1XzF6x-1" vertex="1">
          <mxGeometry x="-70" y="336" width="200" height="90" as="geometry" />
        </mxCell>
        <mxCell id="R9qOdBa61c9OX_-5L8GD-25" style="edgeStyle=orthogonalEdgeStyle;rounded=0;orthogonalLoop=1;jettySize=auto;html=1;exitX=0.5;exitY=1;exitDx=0;exitDy=0;" parent="Q7fzbbWbQliHNp1XzF6x-1" source="Q7fzbbWbQliHNp1XzF6x-11" edge="1">
          <mxGeometry relative="1" as="geometry">
            <mxPoint x="295" y="330" as="sourcePoint" />
            <mxPoint x="-205" y="850" as="targetPoint" />
          </mxGeometry>
        </mxCell>
        <mxCell id="R9qOdBa61c9OX_-5L8GD-26" value="RF" style="shape=step;perimeter=stepPerimeter;whiteSpace=wrap;html=1;fixedSize=1;fontFamily=Helvetica;fontSize=18;fillColor=#a0522d;strokeColor=#6D1F00;fontColor=#ffffff;" parent="Q7fzbbWbQliHNp1XzF6x-1" vertex="1">
          <mxGeometry x="-500" y="870" width="120" height="50" as="geometry" />
        </mxCell>
        <mxCell id="R9qOdBa61c9OX_-5L8GD-32" style="edgeStyle=orthogonalEdgeStyle;rounded=0;orthogonalLoop=1;jettySize=auto;html=1;entryX=0.5;entryY=0;entryDx=0;entryDy=0;fontFamily=Helvetica;fontSize=18;" parent="Q7fzbbWbQliHNp1XzF6x-1" source="R9qOdBa61c9OX_-5L8GD-27" target="Q7fzbbWbQliHNp1XzF6x-36" edge="1">
          <mxGeometry relative="1" as="geometry" />
        </mxCell>
        <mxCell id="R9qOdBa61c9OX_-5L8GD-27" value="&lt;span style=&quot;font-size: 18px&quot;&gt;distance RF&amp;nbsp;&lt;/span&gt;&lt;span style=&quot;font-size: 18px&quot;&gt;&amp;lt;= distance RF seuil&lt;/span&gt;" style="rhombus;whiteSpace=wrap;html=1;fontFamily=Helvetica;fontSize=18;fillColor=#60a917;strokeColor=#2D7600;fontColor=#ffffff;" parent="Q7fzbbWbQliHNp1XzF6x-1" vertex="1">
          <mxGeometry x="-389.38" y="990" width="358.75" height="100" as="geometry" />
        </mxCell>
        <mxCell id="R9qOdBa61c9OX_-5L8GD-28" style="edgeStyle=orthogonalEdgeStyle;rounded=0;orthogonalLoop=1;jettySize=auto;html=1;entryX=0.997;entryY=0.565;entryDx=0;entryDy=0;entryPerimeter=0;" parent="Q7fzbbWbQliHNp1XzF6x-1" target="Q7fzbbWbQliHNp1XzF6x-24" edge="1">
          <mxGeometry relative="1" as="geometry">
            <Array as="points">
              <mxPoint x="-30" y="1040" />
              <mxPoint x="560" y="1040" />
              <mxPoint x="560" y="664" />
            </Array>
            <mxPoint x="-30" y="1040" as="sourcePoint" />
            <mxPoint x="377" y="664" as="targetPoint" />
          </mxGeometry>
        </mxCell>
        <mxCell id="R9qOdBa61c9OX_-5L8GD-29" value="suivant" style="edgeLabel;html=1;align=center;verticalAlign=middle;resizable=0;points=[];fontSize=18;" parent="R9qOdBa61c9OX_-5L8GD-28" vertex="1" connectable="0">
          <mxGeometry x="-0.9109" y="-4" relative="1" as="geometry">
            <mxPoint x="186" y="-4" as="offset" />
          </mxGeometry>
        </mxCell>
        <mxCell id="R9qOdBa61c9OX_-5L8GD-30" value="RaxML" style="shape=step;perimeter=stepPerimeter;whiteSpace=wrap;html=1;fixedSize=1;fontFamily=Helvetica;fontSize=18;fillColor=#a0522d;strokeColor=#6D1F00;fontColor=#ffffff;" parent="Q7fzbbWbQliHNp1XzF6x-1" vertex="1">
          <mxGeometry x="-500" y="1270" width="120" height="50" as="geometry" />
        </mxCell>
        <mxCell id="R9qOdBa61c9OX_-5L8GD-41" style="edgeStyle=orthogonalEdgeStyle;rounded=0;orthogonalLoop=1;jettySize=auto;html=1;entryX=0.5;entryY=0;entryDx=0;entryDy=0;fontFamily=Helvetica;fontSize=18;" parent="Q7fzbbWbQliHNp1XzF6x-1" source="R9qOdBa61c9OX_-5L8GD-36" edge="1">
          <mxGeometry relative="1" as="geometry">
            <mxPoint x="-211.25" y="1540" as="targetPoint" />
          </mxGeometry>
        </mxCell>
        <mxCell id="R9qOdBa61c9OX_-5L8GD-36" value="&lt;span style=&quot;font-size: 18px&quot;&gt;valeur bootstrap&amp;nbsp;&lt;/span&gt;&lt;span style=&quot;font-size: 18px&quot;&gt;&amp;gt; bootstrap seuil&lt;/span&gt;" style="rhombus;whiteSpace=wrap;html=1;fontFamily=Helvetica;fontSize=18;fillColor=#60a917;strokeColor=#2D7600;fontColor=#ffffff;" parent="Q7fzbbWbQliHNp1XzF6x-1" vertex="1">
          <mxGeometry x="-380" y="1400" width="337.5" height="80" as="geometry" />
        </mxCell>
        <mxCell id="R9qOdBa61c9OX_-5L8GD-38" style="edgeStyle=orthogonalEdgeStyle;rounded=0;orthogonalLoop=1;jettySize=auto;html=1;exitX=1;exitY=0.5;exitDx=0;exitDy=0;entryX=0.996;entryY=0.555;entryDx=0;entryDy=0;entryPerimeter=0;" parent="Q7fzbbWbQliHNp1XzF6x-1" source="R9qOdBa61c9OX_-5L8GD-36" target="Q7fzbbWbQliHNp1XzF6x-24" edge="1">
          <mxGeometry relative="1" as="geometry">
            <Array as="points">
              <mxPoint x="560" y="1440" />
              <mxPoint x="560" y="663" />
            </Array>
            <mxPoint x="-20" y="1050" as="sourcePoint" />
            <mxPoint x="380" y="660" as="targetPoint" />
          </mxGeometry>
        </mxCell>
        <mxCell id="R9qOdBa61c9OX_-5L8GD-39" value="suivant" style="edgeLabel;html=1;align=center;verticalAlign=middle;resizable=0;points=[];fontSize=18;" parent="R9qOdBa61c9OX_-5L8GD-38" vertex="1" connectable="0">
          <mxGeometry x="-0.9109" y="-4" relative="1" as="geometry">
            <mxPoint x="186" y="-4" as="offset" />
          </mxGeometry>
        </mxCell>
        <mxCell id="LxcWzbMt1iLZ0JmzBSU2-0" value="" style="rounded=1;whiteSpace=wrap;html=1;fontFamily=Helvetica;fontSize=18;fillColor=#26FFB0;" parent="Q7fzbbWbQliHNp1XzF6x-1" vertex="1">
          <mxGeometry x="-480" y="740" width="120" height="60" as="geometry" />
        </mxCell>
        <mxCell id="LxcWzbMt1iLZ0JmzBSU2-1" value="" style="rounded=1;whiteSpace=wrap;html=1;fontFamily=Helvetica;fontSize=18;fillColor=#26FFB0;opacity=20;" parent="Q7fzbbWbQliHNp1XzF6x-1" vertex="1">
          <mxGeometry x="-389.38" y="-117" width="320" height="470" as="geometry" />
        </mxCell>
      </root>
    </mxGraphModel>
  </diagram>
  <diagram id="gYKdsG5auPHLe1ukmkhb" name="Page-3">
    <mxGraphModel dx="8264" dy="4821" grid="1" gridSize="10" guides="1" tooltips="1" connect="1" arrows="1" fold="1" page="1" pageScale="1" pageWidth="850" pageHeight="1100" math="0" shadow="0">
      <root>
        <mxCell id="A6zj--S-j-GTAEgCRz-p-0" />
        <mxCell id="A6zj--S-j-GTAEgCRz-p-1" parent="A6zj--S-j-GTAEgCRz-p-0" />
        <mxCell id="A6zj--S-j-GTAEgCRz-p-53" value="" style="rounded=1;whiteSpace=wrap;html=1;fontFamily=Helvetica;fontSize=18;fillColor=#26FFB0;opacity=20;" vertex="1" parent="A6zj--S-j-GTAEgCRz-p-1">
          <mxGeometry x="-840" y="-970" width="520" height="313" as="geometry" />
        </mxCell>
        <mxCell id="A6zj--S-j-GTAEgCRz-p-59" value="" style="rounded=1;whiteSpace=wrap;html=1;fontFamily=Helvetica;fontSize=18;fillColor=#a20025;opacity=20;strokeColor=#6F0000;fontColor=#ffffff;" vertex="1" parent="A6zj--S-j-GTAEgCRz-p-1">
          <mxGeometry x="-840" y="-604" width="520" height="960" as="geometry" />
        </mxCell>
        <mxCell id="A6zj--S-j-GTAEgCRz-p-55" value="" style="rounded=1;whiteSpace=wrap;html=1;fontFamily=Helvetica;fontSize=18;fillColor=#60a917;opacity=20;strokeColor=#2D7600;fontColor=#ffffff;" vertex="1" parent="A6zj--S-j-GTAEgCRz-p-1">
          <mxGeometry x="-310" y="-784" width="692.5" height="880" as="geometry" />
        </mxCell>
        <mxCell id="A6zj--S-j-GTAEgCRz-p-2" style="edgeStyle=orthogonalEdgeStyle;rounded=0;orthogonalLoop=1;jettySize=auto;html=1;entryX=0.5;entryY=0;entryDx=0;entryDy=0;" edge="1" parent="A6zj--S-j-GTAEgCRz-p-1" target="A6zj--S-j-GTAEgCRz-p-4">
          <mxGeometry relative="1" as="geometry">
            <mxPoint x="-530.0400000000027" y="-980" as="sourcePoint" />
            <mxPoint x="-530.04" y="-960" as="targetPoint" />
          </mxGeometry>
        </mxCell>
        <mxCell id="A6zj--S-j-GTAEgCRz-p-3" style="edgeStyle=orthogonalEdgeStyle;rounded=0;orthogonalLoop=1;jettySize=auto;html=1;entryX=0.474;entryY=0;entryDx=0;entryDy=0;entryPerimeter=0;" edge="1" parent="A6zj--S-j-GTAEgCRz-p-1" target="A6zj--S-j-GTAEgCRz-p-5">
          <mxGeometry relative="1" as="geometry">
            <mxPoint x="-530" y="-850" as="sourcePoint" />
            <Array as="points">
              <mxPoint x="-530" y="-780" />
            </Array>
          </mxGeometry>
        </mxCell>
        <mxCell id="A6zj--S-j-GTAEgCRz-p-4" value="&lt;font style=&quot;font-size: 18px&quot;&gt;Validation des paramètres&lt;/font&gt;" style="rounded=1;whiteSpace=wrap;html=1;strokeColor=#666666;fontColor=#333333;fillColor=#D4E1F5;" vertex="1" parent="A6zj--S-j-GTAEgCRz-p-1">
          <mxGeometry x="-630" y="-940" width="200" height="90" as="geometry" />
        </mxCell>
        <mxCell id="A6zj--S-j-GTAEgCRz-p-5" value="&lt;font style=&quot;font-size: 18px&quot;&gt;Création des arbres issus des données climatiques&lt;/font&gt;" style="rounded=1;whiteSpace=wrap;html=1;strokeColor=#666666;fontColor=#333333;fillColor=#D4E1F5;" vertex="1" parent="A6zj--S-j-GTAEgCRz-p-1">
          <mxGeometry x="-625" y="-780" width="200" height="90" as="geometry" />
        </mxCell>
        <mxCell id="A6zj--S-j-GTAEgCRz-p-6" style="edgeStyle=orthogonalEdgeStyle;rounded=0;orthogonalLoop=1;jettySize=auto;html=1;entryX=0.5;entryY=0;entryDx=0;entryDy=0;exitX=0.5;exitY=1;exitDx=0;exitDy=0;" edge="1" parent="A6zj--S-j-GTAEgCRz-p-1" source="A6zj--S-j-GTAEgCRz-p-36" target="A6zj--S-j-GTAEgCRz-p-28">
          <mxGeometry relative="1" as="geometry">
            <mxPoint x="17.5" y="-451" as="sourcePoint" />
          </mxGeometry>
        </mxCell>
        <mxCell id="A6zj--S-j-GTAEgCRz-p-7" value="&lt;span style=&quot;font-size: 18px&quot;&gt;Validation des paramètres d&#39;entrée du programme&lt;/span&gt;" style="rounded=1;whiteSpace=wrap;html=1;fillColor=#60a917;strokeColor=#2D7600;fontColor=#ffffff;" vertex="1" parent="A6zj--S-j-GTAEgCRz-p-1">
          <mxGeometry x="-82.5" y="-754" width="200" height="90" as="geometry" />
        </mxCell>
        <mxCell id="A6zj--S-j-GTAEgCRz-p-8" value="" style="edgeStyle=orthogonalEdgeStyle;rounded=0;orthogonalLoop=1;jettySize=auto;html=1;exitX=0.5;exitY=1;exitDx=0;exitDy=0;" edge="1" parent="A6zj--S-j-GTAEgCRz-p-1" source="A6zj--S-j-GTAEgCRz-p-28" target="A6zj--S-j-GTAEgCRz-p-10">
          <mxGeometry relative="1" as="geometry">
            <Array as="points">
              <mxPoint x="17.5" y="-156" />
            </Array>
          </mxGeometry>
        </mxCell>
        <mxCell id="A6zj--S-j-GTAEgCRz-p-9" style="edgeStyle=orthogonalEdgeStyle;rounded=0;orthogonalLoop=1;jettySize=auto;html=1;fontFamily=Helvetica;fontSize=18;entryX=0.5;entryY=0;entryDx=0;entryDy=0;" edge="1" parent="A6zj--S-j-GTAEgCRz-p-1" source="A6zj--S-j-GTAEgCRz-p-10" target="A6zj--S-j-GTAEgCRz-p-35">
          <mxGeometry relative="1" as="geometry">
            <mxPoint x="7.5" y="-84" as="targetPoint" />
            <Array as="points">
              <mxPoint x="17.5" y="-104" />
              <mxPoint x="17.5" y="-104" />
            </Array>
          </mxGeometry>
        </mxCell>
        <mxCell id="A6zj--S-j-GTAEgCRz-p-10" value="&lt;span style=&quot;font-size: 18px&quot;&gt;Calcul du bootstrap de l&#39;arbre consensus issu de l&#39;ASM&lt;/span&gt;" style="rounded=1;whiteSpace=wrap;html=1;fillColor=#60a917;strokeColor=#2D7600;fontColor=#ffffff;" vertex="1" parent="A6zj--S-j-GTAEgCRz-p-1">
          <mxGeometry x="-92.5" y="-211" width="200" height="90" as="geometry" />
        </mxCell>
        <mxCell id="A6zj--S-j-GTAEgCRz-p-11" style="edgeStyle=orthogonalEdgeStyle;rounded=0;orthogonalLoop=1;jettySize=auto;html=1;exitX=1;exitY=0.5;exitDx=0;exitDy=0;" edge="1" parent="A6zj--S-j-GTAEgCRz-p-1">
          <mxGeometry relative="1" as="geometry">
            <Array as="points">
              <mxPoint x="290" y="-44" />
              <mxPoint x="290" y="-160" />
            </Array>
            <mxPoint x="183.25" y="-44" as="sourcePoint" />
            <mxPoint x="110" y="-160" as="targetPoint" />
          </mxGeometry>
        </mxCell>
        <mxCell id="A6zj--S-j-GTAEgCRz-p-12" value="suivant" style="edgeLabel;html=1;align=center;verticalAlign=middle;resizable=0;points=[];fontSize=18;labelBackgroundColor=none;rotation=-90;" vertex="1" connectable="0" parent="A6zj--S-j-GTAEgCRz-p-11">
          <mxGeometry x="-0.9109" y="-4" relative="1" as="geometry">
            <mxPoint x="96" y="-64" as="offset" />
          </mxGeometry>
        </mxCell>
        <mxCell id="A6zj--S-j-GTAEgCRz-p-13" style="edgeStyle=orthogonalEdgeStyle;rounded=0;orthogonalLoop=1;jettySize=auto;html=1;entryX=0.5;entryY=0;entryDx=0;entryDy=0;fontFamily=Helvetica;fontSize=18;" edge="1" parent="A6zj--S-j-GTAEgCRz-p-1" source="A6zj--S-j-GTAEgCRz-p-14" target="A6zj--S-j-GTAEgCRz-p-44">
          <mxGeometry relative="1" as="geometry" />
        </mxCell>
        <mxCell id="A6zj--S-j-GTAEgCRz-p-14" value="&lt;span style=&quot;font-size: 18px&quot;&gt;Calcul de la distance RF entre l&#39;arbre consensus et les arbres climatiques&lt;/span&gt;" style="rounded=1;whiteSpace=wrap;html=1;strokeColor=#A50040;fontColor=#ffffff;fillColor=#D882B5;" vertex="1" parent="A6zj--S-j-GTAEgCRz-p-1">
          <mxGeometry x="-630" y="-514" width="210" height="90" as="geometry" />
        </mxCell>
        <mxCell id="A6zj--S-j-GTAEgCRz-p-15" style="edgeStyle=orthogonalEdgeStyle;rounded=0;orthogonalLoop=1;jettySize=auto;html=1;fontFamily=Helvetica;fontSize=18;" edge="1" parent="A6zj--S-j-GTAEgCRz-p-1" source="A6zj--S-j-GTAEgCRz-p-16" target="A6zj--S-j-GTAEgCRz-p-18">
          <mxGeometry relative="1" as="geometry" />
        </mxCell>
        <mxCell id="A6zj--S-j-GTAEgCRz-p-16" value="&lt;span style=&quot;font-size: 18px&quot;&gt;Création de l&#39;arbre phylogénétique le plus parcimonieux&lt;/span&gt;" style="rounded=1;whiteSpace=wrap;html=1;strokeColor=#A50040;fontColor=#ffffff;fillColor=#D882B5;" vertex="1" parent="A6zj--S-j-GTAEgCRz-p-1">
          <mxGeometry x="-625" y="-234" width="200" height="90" as="geometry" />
        </mxCell>
        <mxCell id="A6zj--S-j-GTAEgCRz-p-17" style="edgeStyle=orthogonalEdgeStyle;rounded=0;orthogonalLoop=1;jettySize=auto;html=1;entryX=0.5;entryY=0;entryDx=0;entryDy=0;fontFamily=Helvetica;fontSize=18;" edge="1" parent="A6zj--S-j-GTAEgCRz-p-1" source="A6zj--S-j-GTAEgCRz-p-18" target="A6zj--S-j-GTAEgCRz-p-49">
          <mxGeometry relative="1" as="geometry" />
        </mxCell>
        <mxCell id="A6zj--S-j-GTAEgCRz-p-18" value="&lt;span style=&quot;font-size: 18px&quot;&gt;Calcul du bootstrap&amp;nbsp;&lt;/span&gt;" style="rounded=1;whiteSpace=wrap;html=1;strokeColor=#A50040;fontColor=#ffffff;fillColor=#D882B5;" vertex="1" parent="A6zj--S-j-GTAEgCRz-p-1">
          <mxGeometry x="-624.99" y="-104" width="200" height="90" as="geometry" />
        </mxCell>
        <mxCell id="A6zj--S-j-GTAEgCRz-p-19" style="edgeStyle=orthogonalEdgeStyle;rounded=0;orthogonalLoop=1;jettySize=auto;html=1;entryX=0.083;entryY=0.484;entryDx=0;entryDy=0;entryPerimeter=0;" edge="1" parent="A6zj--S-j-GTAEgCRz-p-1" source="A6zj--S-j-GTAEgCRz-p-20" target="A6zj--S-j-GTAEgCRz-p-27">
          <mxGeometry relative="1" as="geometry">
            <mxPoint x="-235" y="950" as="targetPoint" />
          </mxGeometry>
        </mxCell>
        <mxCell id="A6zj--S-j-GTAEgCRz-p-20" value="&lt;span style=&quot;font-size: 18px&quot;&gt;Garder l&#39;ASM et les fichier dans le dossier respectif et ajouter les info dans le fichier output.csv&lt;/span&gt;" style="rounded=1;whiteSpace=wrap;html=1;strokeColor=#A50040;fontColor=#ffffff;fillColor=#D882B5;" vertex="1" parent="A6zj--S-j-GTAEgCRz-p-1">
          <mxGeometry x="-640" y="176" width="215" height="100" as="geometry" />
        </mxCell>
        <mxCell id="A6zj--S-j-GTAEgCRz-p-21" value="" style="strokeWidth=2;html=1;shape=mxgraph.flowchart.annotation_2;align=left;labelPosition=right;pointerEvents=1;rotation=-90;direction=south;" vertex="1" parent="A6zj--S-j-GTAEgCRz-p-1">
          <mxGeometry x="20.569999999999993" y="-379.90999999999997" width="270.45" height="83.38" as="geometry" />
        </mxCell>
        <mxCell id="A6zj--S-j-GTAEgCRz-p-22" value="Légende" style="swimlane;fontStyle=0;childLayout=stackLayout;horizontal=1;startSize=26;horizontalStack=0;resizeParent=1;resizeParentMax=0;resizeLast=0;collapsible=1;marginBottom=0;" vertex="1" parent="A6zj--S-j-GTAEgCRz-p-1">
          <mxGeometry x="210" y="230" width="150" height="100" as="geometry" />
        </mxCell>
        <mxCell id="A6zj--S-j-GTAEgCRz-p-23" value="Climatique" style="text;align=left;verticalAlign=top;spacingLeft=4;spacingRight=4;overflow=hidden;rotatable=0;points=[[0,0.5],[1,0.5]];portConstraint=eastwest;strokeColor=#006EAF;fillColor=#D4E1F5;" vertex="1" parent="A6zj--S-j-GTAEgCRz-p-22">
          <mxGeometry y="26" width="150" height="26" as="geometry" />
        </mxCell>
        <mxCell id="A6zj--S-j-GTAEgCRz-p-24" value="Génétique" style="text;strokeColor=#d79b00;align=left;verticalAlign=top;spacingLeft=4;spacingRight=4;overflow=hidden;rotatable=0;points=[[0,0.5],[1,0.5]];portConstraint=eastwest;fillColor=#60A917;" vertex="1" parent="A6zj--S-j-GTAEgCRz-p-22">
          <mxGeometry y="52" width="150" height="26" as="geometry" />
        </mxCell>
        <mxCell id="A6zj--S-j-GTAEgCRz-p-25" value="Phylogéographie" style="text;strokeColor=#2D7600;align=left;verticalAlign=top;spacingLeft=4;spacingRight=4;overflow=hidden;rotatable=0;points=[[0,0.5],[1,0.5]];portConstraint=eastwest;fontColor=#ffffff;fillColor=#A20025;" vertex="1" parent="A6zj--S-j-GTAEgCRz-p-22">
          <mxGeometry y="78" width="150" height="22" as="geometry" />
        </mxCell>
        <mxCell id="A6zj--S-j-GTAEgCRz-p-26" value="Début" style="ellipse;shape=cloud;fillColor=#26FFB0;fontSize=18;fontFamily=Helvetica;" vertex="1" parent="A6zj--S-j-GTAEgCRz-p-1">
          <mxGeometry x="-625" y="-1090" width="175" height="120" as="geometry" />
        </mxCell>
        <mxCell id="A6zj--S-j-GTAEgCRz-p-27" value="Fin" style="ellipse;shape=cloud;fillColor=#26FFB0;fontSize=18;fontFamily=Helvetica;" vertex="1" parent="A6zj--S-j-GTAEgCRz-p-1">
          <mxGeometry x="-220" y="166" width="175" height="120" as="geometry" />
        </mxCell>
        <mxCell id="A6zj--S-j-GTAEgCRz-p-28" value="&lt;span style=&quot;font-size: 18px&quot;&gt;Paquet Phylip&lt;/span&gt;" style="rounded=1;whiteSpace=wrap;html=1;fillColor=#60a917;strokeColor=#2D7600;fontColor=#ffffff;" vertex="1" parent="A6zj--S-j-GTAEgCRz-p-1">
          <mxGeometry x="-82.5" y="-381" width="200" height="90" as="geometry" />
        </mxCell>
        <mxCell id="A6zj--S-j-GTAEgCRz-p-29" value="Neightor" style="shape=step;perimeter=stepPerimeter;whiteSpace=wrap;html=1;fixedSize=1;fontFamily=Helvetica;fontSize=18;fillColor=#a0522d;strokeColor=#6D1F00;fontColor=#ffffff;" vertex="1" parent="A6zj--S-j-GTAEgCRz-p-1">
          <mxGeometry x="212.5" y="-261" width="120" height="50" as="geometry" />
        </mxCell>
        <mxCell id="A6zj--S-j-GTAEgCRz-p-30" value="Consense" style="shape=step;perimeter=stepPerimeter;whiteSpace=wrap;html=1;fixedSize=1;fontFamily=Helvetica;fontSize=18;fillColor=#a0522d;strokeColor=#6D1F00;fontColor=#ffffff;" vertex="1" parent="A6zj--S-j-GTAEgCRz-p-1">
          <mxGeometry x="212.5" y="-471" width="120" height="50" as="geometry" />
        </mxCell>
        <mxCell id="A6zj--S-j-GTAEgCRz-p-31" value="dnaDist or protDist" style="shape=step;perimeter=stepPerimeter;whiteSpace=wrap;html=1;fixedSize=1;fontFamily=Helvetica;fontSize=18;fillColor=#a0522d;strokeColor=#6D1F00;fontColor=#ffffff;" vertex="1" parent="A6zj--S-j-GTAEgCRz-p-1">
          <mxGeometry x="212.5" y="-328" width="120" height="50" as="geometry" />
        </mxCell>
        <mxCell id="A6zj--S-j-GTAEgCRz-p-32" style="edgeStyle=orthogonalEdgeStyle;rounded=0;orthogonalLoop=1;jettySize=auto;html=1;exitX=0.5;exitY=1;exitDx=0;exitDy=0;fontFamily=Helvetica;fontSize=18;fillColor=#a0522d;strokeColor=#6D1F00;" edge="1" parent="A6zj--S-j-GTAEgCRz-p-1" source="A6zj--S-j-GTAEgCRz-p-30" target="A6zj--S-j-GTAEgCRz-p-30">
          <mxGeometry relative="1" as="geometry" />
        </mxCell>
        <mxCell id="A6zj--S-j-GTAEgCRz-p-33" value="SeqBoot" style="shape=step;perimeter=stepPerimeter;whiteSpace=wrap;html=1;fixedSize=1;fontFamily=Helvetica;fontSize=18;fillColor=#a0522d;strokeColor=#6D1F00;fontColor=#ffffff;" vertex="1" parent="A6zj--S-j-GTAEgCRz-p-1">
          <mxGeometry x="212.5" y="-398" width="120" height="50" as="geometry" />
        </mxCell>
        <mxCell id="A6zj--S-j-GTAEgCRz-p-34" style="edgeStyle=orthogonalEdgeStyle;rounded=0;orthogonalLoop=1;jettySize=auto;html=1;entryX=1;entryY=0.5;entryDx=0;entryDy=0;fontFamily=Helvetica;fontSize=18;" edge="1" parent="A6zj--S-j-GTAEgCRz-p-1" source="A6zj--S-j-GTAEgCRz-p-35" target="A6zj--S-j-GTAEgCRz-p-14">
          <mxGeometry relative="1" as="geometry">
            <Array as="points">
              <mxPoint x="-300" y="-44" />
              <mxPoint x="-300" y="-469" />
            </Array>
          </mxGeometry>
        </mxCell>
        <mxCell id="A6zj--S-j-GTAEgCRz-p-35" value="&lt;span style=&quot;font-size: 18px&quot;&gt;valeur bootstrap&amp;nbsp;&lt;/span&gt;&lt;span style=&quot;font-size: 18px&quot;&gt;&amp;gt; bootstrap seuil&lt;/span&gt;" style="rhombus;whiteSpace=wrap;html=1;fontFamily=Helvetica;fontSize=18;fillColor=#60a917;strokeColor=#2D7600;fontColor=#ffffff;" vertex="1" parent="A6zj--S-j-GTAEgCRz-p-1">
          <mxGeometry x="-151.25" y="-84" width="337.5" height="80" as="geometry" />
        </mxCell>
        <mxCell id="A6zj--S-j-GTAEgCRz-p-54" style="edgeStyle=orthogonalEdgeStyle;rounded=0;orthogonalLoop=1;jettySize=auto;html=1;fontFamily=Helvetica;fontSize=18;" edge="1" parent="A6zj--S-j-GTAEgCRz-p-1" source="A6zj--S-j-GTAEgCRz-p-36" target="A6zj--S-j-GTAEgCRz-p-40">
          <mxGeometry relative="1" as="geometry">
            <Array as="points">
              <mxPoint x="-187.5" y="-544" />
            </Array>
          </mxGeometry>
        </mxCell>
        <mxCell id="A6zj--S-j-GTAEgCRz-p-36" value="&lt;span style=&quot;font-size: 18px&quot;&gt;Alignement Multiple de Séquences (ASM)&lt;br&gt;&lt;/span&gt;" style="rounded=1;whiteSpace=wrap;html=1;fillColor=#60a917;strokeColor=#2D7600;fontColor=#ffffff;" vertex="1" parent="A6zj--S-j-GTAEgCRz-p-1">
          <mxGeometry x="-82.5" y="-594" width="200" height="90" as="geometry" />
        </mxCell>
        <mxCell id="A6zj--S-j-GTAEgCRz-p-37" style="edgeStyle=orthogonalEdgeStyle;rounded=0;orthogonalLoop=1;jettySize=auto;html=1;exitX=0.5;exitY=1;exitDx=0;exitDy=0;" edge="1" parent="A6zj--S-j-GTAEgCRz-p-1" source="A6zj--S-j-GTAEgCRz-p-7">
          <mxGeometry relative="1" as="geometry">
            <mxPoint x="27.5" y="-489" as="sourcePoint" />
            <mxPoint x="17.5" y="-594" as="targetPoint" />
          </mxGeometry>
        </mxCell>
        <mxCell id="A6zj--S-j-GTAEgCRz-p-38" value="Muscle" style="shape=step;perimeter=stepPerimeter;whiteSpace=wrap;html=1;fixedSize=1;fontFamily=Helvetica;fontSize=18;fillColor=#a0522d;strokeColor=#6D1F00;fontColor=#ffffff;" vertex="1" parent="A6zj--S-j-GTAEgCRz-p-1">
          <mxGeometry x="212.5" y="-574" width="120" height="50" as="geometry" />
        </mxCell>
        <mxCell id="A6zj--S-j-GTAEgCRz-p-39" value="" style="edgeStyle=orthogonalEdgeStyle;rounded=0;orthogonalLoop=1;jettySize=auto;html=1;entryX=0.003;entryY=0.596;entryDx=0;entryDy=0;entryPerimeter=0;" edge="1" parent="A6zj--S-j-GTAEgCRz-p-1" target="A6zj--S-j-GTAEgCRz-p-28">
          <mxGeometry relative="1" as="geometry">
            <mxPoint x="-87.5" y="-544" as="sourcePoint" />
            <mxPoint x="-107.5" y="-146" as="targetPoint" />
            <Array as="points">
              <mxPoint x="-187.5" y="-544" />
              <mxPoint x="-187.5" y="-327" />
            </Array>
          </mxGeometry>
        </mxCell>
        <mxCell id="A6zj--S-j-GTAEgCRz-p-40" value="&lt;span style=&quot;font-size: 18px&quot;&gt;Fenêtre coulissante sur l&#39;ASM&lt;/span&gt;" style="rounded=1;whiteSpace=wrap;html=1;fillColor=#60a917;strokeColor=#2D7600;fontColor=#ffffff;" vertex="1" parent="A6zj--S-j-GTAEgCRz-p-1">
          <mxGeometry x="-282.5" y="-488" width="200" height="90" as="geometry" />
        </mxCell>
        <mxCell id="A6zj--S-j-GTAEgCRz-p-41" style="edgeStyle=orthogonalEdgeStyle;rounded=0;orthogonalLoop=1;jettySize=auto;html=1;exitX=0.5;exitY=1;exitDx=0;exitDy=0;" edge="1" parent="A6zj--S-j-GTAEgCRz-p-1" source="A6zj--S-j-GTAEgCRz-p-5" target="A6zj--S-j-GTAEgCRz-p-14">
          <mxGeometry relative="1" as="geometry">
            <mxPoint x="-25" y="-680" as="sourcePoint" />
            <mxPoint x="-525" y="-160" as="targetPoint" />
            <Array as="points">
              <mxPoint x="-525" y="-570" />
              <mxPoint x="-525" y="-570" />
            </Array>
          </mxGeometry>
        </mxCell>
        <mxCell id="A6zj--S-j-GTAEgCRz-p-42" value="RF" style="shape=step;perimeter=stepPerimeter;whiteSpace=wrap;html=1;fixedSize=1;fontFamily=Helvetica;fontSize=18;fillColor=#a0522d;strokeColor=#6D1F00;fontColor=#ffffff;" vertex="1" parent="A6zj--S-j-GTAEgCRz-p-1">
          <mxGeometry x="-820" y="-494" width="120" height="50" as="geometry" />
        </mxCell>
        <mxCell id="A6zj--S-j-GTAEgCRz-p-43" style="edgeStyle=orthogonalEdgeStyle;rounded=0;orthogonalLoop=1;jettySize=auto;html=1;entryX=0.5;entryY=0;entryDx=0;entryDy=0;fontFamily=Helvetica;fontSize=18;" edge="1" parent="A6zj--S-j-GTAEgCRz-p-1" source="A6zj--S-j-GTAEgCRz-p-44" target="A6zj--S-j-GTAEgCRz-p-16">
          <mxGeometry relative="1" as="geometry" />
        </mxCell>
        <mxCell id="A6zj--S-j-GTAEgCRz-p-44" value="&lt;span style=&quot;font-size: 18px&quot;&gt;distance RF&amp;nbsp;&lt;/span&gt;&lt;span style=&quot;font-size: 18px&quot;&gt;&amp;lt;= distance RF seuil&lt;/span&gt;" style="rhombus;whiteSpace=wrap;html=1;fontFamily=Helvetica;fontSize=18;strokeColor=#A50040;fontColor=#ffffff;fillColor=#D882B5;" vertex="1" parent="A6zj--S-j-GTAEgCRz-p-1">
          <mxGeometry x="-704.37" y="-374" width="358.75" height="100" as="geometry" />
        </mxCell>
        <mxCell id="A6zj--S-j-GTAEgCRz-p-45" style="edgeStyle=orthogonalEdgeStyle;rounded=0;orthogonalLoop=1;jettySize=auto;html=1;entryX=0.997;entryY=0.565;entryDx=0;entryDy=0;entryPerimeter=0;exitX=1;exitY=0.5;exitDx=0;exitDy=0;" edge="1" parent="A6zj--S-j-GTAEgCRz-p-1" target="A6zj--S-j-GTAEgCRz-p-10" source="A6zj--S-j-GTAEgCRz-p-49">
          <mxGeometry relative="1" as="geometry">
            <Array as="points">
              <mxPoint x="290" y="77" />
              <mxPoint x="290" y="-160" />
            </Array>
            <mxPoint x="-297.5" y="216" as="sourcePoint" />
            <mxPoint x="109.5" y="-160" as="targetPoint" />
          </mxGeometry>
        </mxCell>
        <mxCell id="A6zj--S-j-GTAEgCRz-p-46" value="suivant" style="edgeLabel;html=1;align=center;verticalAlign=middle;resizable=0;points=[];fontSize=18;labelBackgroundColor=none;" vertex="1" connectable="0" parent="A6zj--S-j-GTAEgCRz-p-45">
          <mxGeometry x="-0.9109" y="-4" relative="1" as="geometry">
            <mxPoint x="189" y="-11" as="offset" />
          </mxGeometry>
        </mxCell>
        <mxCell id="A6zj--S-j-GTAEgCRz-p-47" value="RaxML" style="shape=step;perimeter=stepPerimeter;whiteSpace=wrap;html=1;fixedSize=1;fontFamily=Helvetica;fontSize=18;fillColor=#a0522d;strokeColor=#6D1F00;fontColor=#ffffff;" vertex="1" parent="A6zj--S-j-GTAEgCRz-p-1">
          <mxGeometry x="-820" y="-94" width="120" height="50" as="geometry" />
        </mxCell>
        <mxCell id="A6zj--S-j-GTAEgCRz-p-48" style="edgeStyle=orthogonalEdgeStyle;rounded=0;orthogonalLoop=1;jettySize=auto;html=1;fontFamily=Helvetica;fontSize=18;" edge="1" parent="A6zj--S-j-GTAEgCRz-p-1" source="A6zj--S-j-GTAEgCRz-p-49">
          <mxGeometry relative="1" as="geometry">
            <mxPoint x="-525" y="176" as="targetPoint" />
          </mxGeometry>
        </mxCell>
        <mxCell id="A6zj--S-j-GTAEgCRz-p-49" value="&lt;span style=&quot;font-size: 18px&quot;&gt;valeur bootstrap&amp;nbsp;&lt;/span&gt;&lt;span style=&quot;font-size: 18px&quot;&gt;&amp;gt; bootstrap seuil&lt;/span&gt;" style="rhombus;whiteSpace=wrap;html=1;fontFamily=Helvetica;fontSize=18;strokeColor=#A50040;fontColor=#ffffff;fillColor=#D882B5;" vertex="1" parent="A6zj--S-j-GTAEgCRz-p-1">
          <mxGeometry x="-693.75" y="37" width="337.5" height="80" as="geometry" />
        </mxCell>
        <mxCell id="A6zj--S-j-GTAEgCRz-p-50" style="edgeStyle=orthogonalEdgeStyle;rounded=0;orthogonalLoop=1;jettySize=auto;html=1;entryX=0.996;entryY=0.555;entryDx=0;entryDy=0;entryPerimeter=0;exitX=1;exitY=0.5;exitDx=0;exitDy=0;" edge="1" parent="A6zj--S-j-GTAEgCRz-p-1" source="A6zj--S-j-GTAEgCRz-p-44" target="A6zj--S-j-GTAEgCRz-p-10">
          <mxGeometry relative="1" as="geometry">
            <Array as="points">
              <mxPoint x="-346" y="20" />
              <mxPoint x="290" y="20" />
              <mxPoint x="290" y="-161" />
            </Array>
            <mxPoint x="-340" y="40" as="sourcePoint" />
            <mxPoint x="60" y="-350" as="targetPoint" />
          </mxGeometry>
        </mxCell>
        <mxCell id="A6zj--S-j-GTAEgCRz-p-51" value="suivant" style="edgeLabel;html=1;align=center;verticalAlign=middle;resizable=0;points=[];fontSize=18;labelBackgroundColor=none;" vertex="1" connectable="0" parent="A6zj--S-j-GTAEgCRz-p-50">
          <mxGeometry x="-0.9109" y="-4" relative="1" as="geometry">
            <mxPoint x="181" y="6" as="offset" />
          </mxGeometry>
        </mxCell>
        <mxCell id="A6zj--S-j-GTAEgCRz-p-56" value="Neightor" style="shape=step;perimeter=stepPerimeter;whiteSpace=wrap;html=1;fixedSize=1;fontFamily=Helvetica;fontSize=18;fillColor=#a0522d;strokeColor=#6D1F00;fontColor=#ffffff;" vertex="1" parent="A6zj--S-j-GTAEgCRz-p-1">
          <mxGeometry x="-820" y="-760" width="120" height="50" as="geometry" />
        </mxCell>
      </root>
    </mxGraphModel>
  </diagram>
  <diagram id="bH1bNm5lveM8oyArmWse" name="Page-4">
    <mxGraphModel dx="2523" dy="1996" grid="1" gridSize="10" guides="1" tooltips="1" connect="1" arrows="1" fold="1" page="1" pageScale="1" pageWidth="850" pageHeight="1100" math="0" shadow="0">
      <root>
        <mxCell id="n7xvBxmtesI49uJ03xCf-0" />
        <mxCell id="n7xvBxmtesI49uJ03xCf-1" parent="n7xvBxmtesI49uJ03xCf-0" />
        <mxCell id="n7xvBxmtesI49uJ03xCf-4" value="" style="rounded=1;whiteSpace=wrap;html=1;fontFamily=Helvetica;fontSize=18;fillColor=#60a917;opacity=20;strokeColor=#2D7600;fontColor=#333333;" parent="n7xvBxmtesI49uJ03xCf-1" vertex="1">
          <mxGeometry x="-286" y="-784" width="692.5" height="880" as="geometry" />
        </mxCell>
        <mxCell id="rfht0STLepA_Xq5oGGcM-6" value="&lt;span style=&quot;font-size: 18px;&quot;&gt;Fenêtre coulissante sur l&#39;ASM&lt;/span&gt;" style="rounded=1;whiteSpace=wrap;html=1;fillColor=#60a917;strokeColor=#2D7600;fontColor=#333333;fontSize=18;opacity=60;" vertex="1" parent="n7xvBxmtesI49uJ03xCf-1">
          <mxGeometry x="-250" y="-494" width="200" height="90" as="geometry" />
        </mxCell>
        <mxCell id="rfht0STLepA_Xq5oGGcM-5" value="&lt;span style=&quot;font-size: 18px;&quot;&gt;Alignement Multiple de Séquences (ASM)&lt;br style=&quot;font-size: 18px;&quot;&gt;&lt;/span&gt;" style="rounded=1;whiteSpace=wrap;html=1;fillColor=#60a917;strokeColor=#2D7600;fontColor=#333333;fontSize=18;opacity=40;" vertex="1" parent="n7xvBxmtesI49uJ03xCf-1">
          <mxGeometry x="-50" y="-604" width="200" height="90" as="geometry" />
        </mxCell>
        <mxCell id="rfht0STLepA_Xq5oGGcM-4" value="&lt;font style=&quot;font-size: 18px;&quot;&gt;Création des arbres issus des données climatiques&lt;/font&gt;" style="rounded=1;whiteSpace=wrap;html=1;strokeColor=#666666;fontColor=#333333;fillColor=#D4E1F5;fontSize=18;" vertex="1" parent="n7xvBxmtesI49uJ03xCf-1">
          <mxGeometry x="-620" y="-790" width="200" height="90" as="geometry" />
        </mxCell>
        <mxCell id="n7xvBxmtesI49uJ03xCf-2" value="" style="rounded=1;whiteSpace=wrap;html=1;fontFamily=Helvetica;fontSize=18;fillColor=#26FFB0;opacity=20;fontColor=#333333;" parent="n7xvBxmtesI49uJ03xCf-1" vertex="1">
          <mxGeometry x="-840" y="-970" width="520" height="313" as="geometry" />
        </mxCell>
        <mxCell id="n7xvBxmtesI49uJ03xCf-3" value="" style="rounded=1;whiteSpace=wrap;html=1;fontFamily=Helvetica;fontSize=18;fillColor=#a20025;opacity=20;strokeColor=#6F0000;fontColor=#333333;" parent="n7xvBxmtesI49uJ03xCf-1" vertex="1">
          <mxGeometry x="-840" y="-604" width="520" height="924" as="geometry" />
        </mxCell>
        <mxCell id="n7xvBxmtesI49uJ03xCf-5" style="edgeStyle=orthogonalEdgeStyle;rounded=0;orthogonalLoop=1;jettySize=auto;html=1;entryX=0.5;entryY=0;entryDx=0;entryDy=0;fontSize=18;fontColor=#333333;" parent="n7xvBxmtesI49uJ03xCf-1" target="n7xvBxmtesI49uJ03xCf-7" edge="1">
          <mxGeometry relative="1" as="geometry">
            <mxPoint x="-530.0400000000018" y="-980.0000000000005" as="sourcePoint" />
            <mxPoint x="-530.04" y="-960" as="targetPoint" />
          </mxGeometry>
        </mxCell>
        <mxCell id="n7xvBxmtesI49uJ03xCf-7" value="&lt;font style=&quot;font-size: 18px;&quot;&gt;Validation des paramètres climatiques&lt;/font&gt;" style="rounded=1;whiteSpace=wrap;html=1;strokeColor=#666666;fontColor=#333333;fillColor=#D4E1F5;fontSize=18;" parent="n7xvBxmtesI49uJ03xCf-1" vertex="1">
          <mxGeometry x="-630" y="-940" width="200" height="90" as="geometry" />
        </mxCell>
        <mxCell id="n7xvBxmtesI49uJ03xCf-8" value="&lt;font style=&quot;font-size: 18px;&quot;&gt;Création des &lt;b&gt;&lt;font color=&quot;#000066&quot;&gt;arbres climatiques&lt;/font&gt;&lt;/b&gt; issus des données climatiques&lt;/font&gt;" style="rounded=1;whiteSpace=wrap;html=1;strokeColor=#666666;fontColor=#333333;fillColor=#D4E1F5;fontSize=18;" parent="n7xvBxmtesI49uJ03xCf-1" vertex="1">
          <mxGeometry x="-630" y="-784" width="200" height="90" as="geometry" />
        </mxCell>
        <mxCell id="n7xvBxmtesI49uJ03xCf-9" style="edgeStyle=orthogonalEdgeStyle;rounded=0;orthogonalLoop=1;jettySize=auto;html=1;entryX=0.5;entryY=0;entryDx=0;entryDy=0;exitX=0.5;exitY=1;exitDx=0;exitDy=0;fontSize=18;fontColor=#333333;" parent="n7xvBxmtesI49uJ03xCf-1" source="n7xvBxmtesI49uJ03xCf-40" target="n7xvBxmtesI49uJ03xCf-31" edge="1">
          <mxGeometry relative="1" as="geometry">
            <mxPoint x="41.5" y="-451" as="sourcePoint" />
          </mxGeometry>
        </mxCell>
        <mxCell id="n7xvBxmtesI49uJ03xCf-10" value="&lt;span style=&quot;font-size: 18px;&quot;&gt;Validation des paramètres génétiques&lt;/span&gt;" style="rounded=1;whiteSpace=wrap;html=1;fillColor=#60a917;strokeColor=#2D7600;fontColor=#333333;fontSize=18;" parent="n7xvBxmtesI49uJ03xCf-1" vertex="1">
          <mxGeometry x="-58.5" y="-754" width="200" height="90" as="geometry" />
        </mxCell>
        <mxCell id="n7xvBxmtesI49uJ03xCf-11" value="" style="edgeStyle=orthogonalEdgeStyle;rounded=0;orthogonalLoop=1;jettySize=auto;html=1;exitX=0.5;exitY=1;exitDx=0;exitDy=0;fontSize=18;fontColor=#333333;" parent="n7xvBxmtesI49uJ03xCf-1" source="n7xvBxmtesI49uJ03xCf-31" target="n7xvBxmtesI49uJ03xCf-13" edge="1">
          <mxGeometry relative="1" as="geometry">
            <Array as="points">
              <mxPoint x="41.5" y="-156" />
            </Array>
          </mxGeometry>
        </mxCell>
        <mxCell id="n7xvBxmtesI49uJ03xCf-12" style="edgeStyle=orthogonalEdgeStyle;rounded=0;orthogonalLoop=1;jettySize=auto;html=1;fontFamily=Helvetica;fontSize=18;entryX=0.5;entryY=0;entryDx=0;entryDy=0;fontColor=#333333;" parent="n7xvBxmtesI49uJ03xCf-1" source="n7xvBxmtesI49uJ03xCf-13" target="n7xvBxmtesI49uJ03xCf-38" edge="1">
          <mxGeometry relative="1" as="geometry">
            <mxPoint x="31.5" y="-84" as="targetPoint" />
            <Array as="points">
              <mxPoint x="41.5" y="-104" />
              <mxPoint x="41.5" y="-104" />
            </Array>
          </mxGeometry>
        </mxCell>
        <mxCell id="n7xvBxmtesI49uJ03xCf-13" value="&lt;span style=&quot;font-size: 18px;&quot;&gt;Calcul du bootstrap de l&#39;arbre consensus issu de l&#39;ASM&lt;/span&gt;" style="rounded=1;whiteSpace=wrap;html=1;fillColor=#60a917;strokeColor=#2D7600;fontColor=#333333;fontSize=18;" parent="n7xvBxmtesI49uJ03xCf-1" vertex="1">
          <mxGeometry x="-68.5" y="-211" width="200" height="90" as="geometry" />
        </mxCell>
        <mxCell id="n7xvBxmtesI49uJ03xCf-14" style="edgeStyle=orthogonalEdgeStyle;rounded=0;orthogonalLoop=1;jettySize=auto;html=1;exitX=0.996;exitY=0.495;exitDx=0;exitDy=0;fontSize=18;entryX=1.007;entryY=0.556;entryDx=0;entryDy=0;entryPerimeter=0;exitPerimeter=0;fontColor=#333333;" parent="n7xvBxmtesI49uJ03xCf-1" source="n7xvBxmtesI49uJ03xCf-38" target="n7xvBxmtesI49uJ03xCf-13" edge="1">
          <mxGeometry relative="1" as="geometry">
            <Array as="points">
              <mxPoint x="290" y="-44" />
              <mxPoint x="290" y="-160" />
              <mxPoint x="133" y="-160" />
            </Array>
            <mxPoint x="214.75" y="-44" as="sourcePoint" />
            <mxPoint x="141.5" y="-160" as="targetPoint" />
          </mxGeometry>
        </mxCell>
        <mxCell id="n7xvBxmtesI49uJ03xCf-15" value="suivant" style="edgeLabel;html=1;align=center;verticalAlign=middle;resizable=0;points=[];fontSize=18;labelBackgroundColor=none;rotation=-90;fontColor=#333333;" parent="n7xvBxmtesI49uJ03xCf-14" vertex="1" connectable="0">
          <mxGeometry x="-0.9109" y="-4" relative="1" as="geometry">
            <mxPoint x="35" y="-54" as="offset" />
          </mxGeometry>
        </mxCell>
        <mxCell id="n7xvBxmtesI49uJ03xCf-16" style="edgeStyle=orthogonalEdgeStyle;rounded=0;orthogonalLoop=1;jettySize=auto;html=1;entryX=0.5;entryY=0;entryDx=0;entryDy=0;fontFamily=Helvetica;fontSize=18;fontColor=#333333;" parent="n7xvBxmtesI49uJ03xCf-1" source="n7xvBxmtesI49uJ03xCf-17" target="n7xvBxmtesI49uJ03xCf-48" edge="1">
          <mxGeometry relative="1" as="geometry" />
        </mxCell>
        <mxCell id="n7xvBxmtesI49uJ03xCf-17" value="&lt;span style=&quot;font-size: 18px;&quot;&gt;Calcul de la distance entre chaque paire d&#39;&lt;b&gt;&lt;font color=&quot;#660033&quot;&gt;arbre climatique&lt;/font&gt;&lt;/b&gt; et d&#39;&lt;b&gt;&lt;font color=&quot;#660033&quot;&gt;arbre génétique&lt;/font&gt;&lt;/b&gt;&lt;/span&gt;" style="rounded=1;whiteSpace=wrap;html=1;strokeColor=#A50040;fontColor=#333333;fillColor=#D882B5;fontSize=18;" parent="n7xvBxmtesI49uJ03xCf-1" vertex="1">
          <mxGeometry x="-630" y="-514" width="210" height="90" as="geometry" />
        </mxCell>
        <mxCell id="n7xvBxmtesI49uJ03xCf-18" style="edgeStyle=orthogonalEdgeStyle;rounded=0;orthogonalLoop=1;jettySize=auto;html=1;fontFamily=Helvetica;fontSize=18;fontColor=#333333;" parent="n7xvBxmtesI49uJ03xCf-1" source="n7xvBxmtesI49uJ03xCf-19" target="n7xvBxmtesI49uJ03xCf-21" edge="1">
          <mxGeometry relative="1" as="geometry" />
        </mxCell>
        <mxCell id="n7xvBxmtesI49uJ03xCf-19" value="&lt;span style=&quot;font-size: 18px;&quot;&gt;Création de l&#39;arbre phylogénétique le plus parcimonieux&lt;/span&gt;" style="rounded=1;whiteSpace=wrap;html=1;strokeColor=#A50040;fontColor=#333333;fillColor=#D882B5;fontSize=18;" parent="n7xvBxmtesI49uJ03xCf-1" vertex="1">
          <mxGeometry x="-625" y="-234" width="200" height="90" as="geometry" />
        </mxCell>
        <mxCell id="n7xvBxmtesI49uJ03xCf-20" style="edgeStyle=orthogonalEdgeStyle;rounded=0;orthogonalLoop=1;jettySize=auto;html=1;entryX=0.5;entryY=0;entryDx=0;entryDy=0;fontFamily=Helvetica;fontSize=18;fontColor=#333333;" parent="n7xvBxmtesI49uJ03xCf-1" source="n7xvBxmtesI49uJ03xCf-21" target="n7xvBxmtesI49uJ03xCf-53" edge="1">
          <mxGeometry relative="1" as="geometry" />
        </mxCell>
        <mxCell id="n7xvBxmtesI49uJ03xCf-21" value="&lt;span style=&quot;font-size: 18px;&quot;&gt;Calcul du bootstrap&amp;nbsp;&lt;/span&gt;" style="rounded=1;whiteSpace=wrap;html=1;strokeColor=#A50040;fontColor=#333333;fillColor=#D882B5;fontSize=18;" parent="n7xvBxmtesI49uJ03xCf-1" vertex="1">
          <mxGeometry x="-624.99" y="-104" width="200" height="90" as="geometry" />
        </mxCell>
        <mxCell id="WV2fhSznE9Pd8o5UCJqN-0" style="edgeStyle=orthogonalEdgeStyle;rounded=0;orthogonalLoop=1;jettySize=auto;html=1;fontSize=18;fontColor=#333333;" parent="n7xvBxmtesI49uJ03xCf-1" source="n7xvBxmtesI49uJ03xCf-23" target="n7xvBxmtesI49uJ03xCf-30" edge="1">
          <mxGeometry relative="1" as="geometry" />
        </mxCell>
        <mxCell id="n7xvBxmtesI49uJ03xCf-23" value="&lt;span style=&quot;font-size: 18px;&quot;&gt;Garder l&#39;ASM et les fichier dans le dossier respectif et ajouter les info dans le fichier output.csv&lt;/span&gt;" style="rounded=1;whiteSpace=wrap;html=1;strokeColor=#A50040;fontColor=#333333;fillColor=#D882B5;fontSize=18;" parent="n7xvBxmtesI49uJ03xCf-1" vertex="1">
          <mxGeometry x="-640" y="176" width="215" height="100" as="geometry" />
        </mxCell>
        <mxCell id="n7xvBxmtesI49uJ03xCf-24" value="" style="strokeWidth=2;html=1;shape=mxgraph.flowchart.annotation_2;align=left;labelPosition=right;pointerEvents=1;rotation=-90;direction=south;fontSize=18;fontColor=#333333;" parent="n7xvBxmtesI49uJ03xCf-1" vertex="1">
          <mxGeometry x="44.56999999999999" y="-379.90999999999997" width="270.45" height="83.38" as="geometry" />
        </mxCell>
        <mxCell id="n7xvBxmtesI49uJ03xCf-25" value="Légende" style="swimlane;fontStyle=0;childLayout=stackLayout;horizontal=1;startSize=26;horizontalStack=0;resizeParent=1;resizeParentMax=0;resizeLast=0;collapsible=1;marginBottom=0;fontSize=18;fontColor=#333333;" parent="n7xvBxmtesI49uJ03xCf-1" vertex="1">
          <mxGeometry x="95.02000000000001" y="142" width="220" height="144" as="geometry" />
        </mxCell>
        <mxCell id="n7xvBxmtesI49uJ03xCf-26" value="Climatique" style="text;align=left;verticalAlign=top;spacingLeft=4;spacingRight=4;overflow=hidden;rotatable=0;points=[[0,0.5],[1,0.5]];portConstraint=eastwest;strokeColor=#006EAF;fillColor=#D4E1F5;fontSize=18;fontColor=#333333;" parent="n7xvBxmtesI49uJ03xCf-25" vertex="1">
          <mxGeometry y="26" width="220" height="42" as="geometry" />
        </mxCell>
        <mxCell id="n7xvBxmtesI49uJ03xCf-27" value="Génétique" style="text;strokeColor=#d79b00;align=left;verticalAlign=top;spacingLeft=4;spacingRight=4;overflow=hidden;rotatable=0;points=[[0,0.5],[1,0.5]];portConstraint=eastwest;fillColor=#60A917;fontSize=18;fontColor=#333333;" parent="n7xvBxmtesI49uJ03xCf-25" vertex="1">
          <mxGeometry y="68" width="220" height="38" as="geometry" />
        </mxCell>
        <mxCell id="n7xvBxmtesI49uJ03xCf-28" value="Phylogéographie" style="text;strokeColor=#2D7600;align=left;verticalAlign=top;spacingLeft=4;spacingRight=4;overflow=hidden;rotatable=0;points=[[0,0.5],[1,0.5]];portConstraint=eastwest;fontColor=#333333;fillColor=#A20025;fontSize=18;" parent="n7xvBxmtesI49uJ03xCf-25" vertex="1">
          <mxGeometry y="106" width="220" height="38" as="geometry" />
        </mxCell>
        <mxCell id="n7xvBxmtesI49uJ03xCf-29" value="Début" style="ellipse;shape=cloud;fillColor=#26FFB0;fontSize=18;fontFamily=Helvetica;fontColor=#333333;" parent="n7xvBxmtesI49uJ03xCf-1" vertex="1">
          <mxGeometry x="-625" y="-1090" width="175" height="120" as="geometry" />
        </mxCell>
        <mxCell id="n7xvBxmtesI49uJ03xCf-30" value="Fin" style="ellipse;shape=cloud;fillColor=#26FFB0;fontSize=18;fontFamily=Helvetica;fontColor=#333333;" parent="n7xvBxmtesI49uJ03xCf-1" vertex="1">
          <mxGeometry x="-227.5" y="166" width="169" height="120" as="geometry" />
        </mxCell>
        <mxCell id="n7xvBxmtesI49uJ03xCf-31" value="&lt;span style=&quot;font-size: 18px;&quot;&gt;Paquet Phylip&lt;/span&gt;" style="rounded=1;whiteSpace=wrap;html=1;fillColor=#60a917;strokeColor=#2D7600;fontColor=#333333;fontSize=18;" parent="n7xvBxmtesI49uJ03xCf-1" vertex="1">
          <mxGeometry x="-58.5" y="-381" width="200" height="90" as="geometry" />
        </mxCell>
        <mxCell id="n7xvBxmtesI49uJ03xCf-32" value="Neightor" style="shape=step;perimeter=stepPerimeter;whiteSpace=wrap;html=1;fixedSize=1;fontFamily=Helvetica;fontSize=18;fillColor=#a0522d;strokeColor=#6D1F00;fontColor=#333333;" parent="n7xvBxmtesI49uJ03xCf-1" vertex="1">
          <mxGeometry x="236.5" y="-261" width="120" height="50" as="geometry" />
        </mxCell>
        <mxCell id="n7xvBxmtesI49uJ03xCf-33" value="Consense" style="shape=step;perimeter=stepPerimeter;whiteSpace=wrap;html=1;fixedSize=1;fontFamily=Helvetica;fontSize=18;fillColor=#a0522d;strokeColor=#6D1F00;fontColor=#333333;" parent="n7xvBxmtesI49uJ03xCf-1" vertex="1">
          <mxGeometry x="236.5" y="-471" width="120" height="50" as="geometry" />
        </mxCell>
        <mxCell id="n7xvBxmtesI49uJ03xCf-34" value="dnaDist or protDist" style="shape=step;perimeter=stepPerimeter;whiteSpace=wrap;html=1;fixedSize=1;fontFamily=Helvetica;fontSize=18;fillColor=#a0522d;strokeColor=#6D1F00;fontColor=#333333;" parent="n7xvBxmtesI49uJ03xCf-1" vertex="1">
          <mxGeometry x="236.5" y="-328" width="120" height="50" as="geometry" />
        </mxCell>
        <mxCell id="n7xvBxmtesI49uJ03xCf-35" style="edgeStyle=orthogonalEdgeStyle;rounded=0;orthogonalLoop=1;jettySize=auto;html=1;exitX=0.5;exitY=1;exitDx=0;exitDy=0;fontFamily=Helvetica;fontSize=18;fillColor=#a0522d;strokeColor=#6D1F00;fontColor=#333333;" parent="n7xvBxmtesI49uJ03xCf-1" source="n7xvBxmtesI49uJ03xCf-33" target="n7xvBxmtesI49uJ03xCf-33" edge="1">
          <mxGeometry relative="1" as="geometry" />
        </mxCell>
        <mxCell id="n7xvBxmtesI49uJ03xCf-36" value="SeqBoot" style="shape=step;perimeter=stepPerimeter;whiteSpace=wrap;html=1;fixedSize=1;fontFamily=Helvetica;fontSize=18;fillColor=#a0522d;strokeColor=#6D1F00;fontColor=#333333;" parent="n7xvBxmtesI49uJ03xCf-1" vertex="1">
          <mxGeometry x="236.5" y="-398" width="120" height="50" as="geometry" />
        </mxCell>
        <mxCell id="n7xvBxmtesI49uJ03xCf-37" style="edgeStyle=orthogonalEdgeStyle;rounded=0;orthogonalLoop=1;jettySize=auto;html=1;entryX=1;entryY=0.5;entryDx=0;entryDy=0;fontFamily=Helvetica;fontSize=18;fontColor=#333333;" parent="n7xvBxmtesI49uJ03xCf-1" source="n7xvBxmtesI49uJ03xCf-38" target="n7xvBxmtesI49uJ03xCf-17" edge="1">
          <mxGeometry relative="1" as="geometry">
            <Array as="points">
              <mxPoint x="-300" y="-44" />
              <mxPoint x="-300" y="-469" />
            </Array>
          </mxGeometry>
        </mxCell>
        <mxCell id="n7xvBxmtesI49uJ03xCf-38" value="&lt;span style=&quot;font-size: 18px;&quot;&gt;valeur bootstrap&amp;nbsp;&lt;/span&gt;&lt;span style=&quot;font-size: 18px;&quot;&gt;&amp;gt; bootstrap seuil&lt;/span&gt;" style="rhombus;whiteSpace=wrap;html=1;fontFamily=Helvetica;fontSize=18;fillColor=#60a917;strokeColor=#2D7600;fontColor=#333333;" parent="n7xvBxmtesI49uJ03xCf-1" vertex="1">
          <mxGeometry x="-127.25" y="-84" width="337.5" height="80" as="geometry" />
        </mxCell>
        <mxCell id="n7xvBxmtesI49uJ03xCf-39" style="edgeStyle=orthogonalEdgeStyle;rounded=0;orthogonalLoop=1;jettySize=auto;html=1;fontFamily=Helvetica;fontSize=18;fontColor=#333333;" parent="n7xvBxmtesI49uJ03xCf-1" source="n7xvBxmtesI49uJ03xCf-40" target="n7xvBxmtesI49uJ03xCf-44" edge="1">
          <mxGeometry relative="1" as="geometry">
            <Array as="points">
              <mxPoint x="-163.5" y="-544" />
            </Array>
          </mxGeometry>
        </mxCell>
        <mxCell id="n7xvBxmtesI49uJ03xCf-40" value="&lt;span style=&quot;font-size: 18px;&quot;&gt;Alignement Multiple de Séquences (ASM)&lt;br style=&quot;font-size: 18px;&quot;&gt;&lt;/span&gt;" style="rounded=1;whiteSpace=wrap;html=1;fillColor=#60a917;strokeColor=#2D7600;fontColor=#333333;fontSize=18;" parent="n7xvBxmtesI49uJ03xCf-1" vertex="1">
          <mxGeometry x="-58.5" y="-594" width="200" height="90" as="geometry" />
        </mxCell>
        <mxCell id="n7xvBxmtesI49uJ03xCf-41" style="edgeStyle=orthogonalEdgeStyle;rounded=0;orthogonalLoop=1;jettySize=auto;html=1;exitX=0.5;exitY=1;exitDx=0;exitDy=0;fontSize=18;fontColor=#333333;" parent="n7xvBxmtesI49uJ03xCf-1" source="n7xvBxmtesI49uJ03xCf-10" edge="1">
          <mxGeometry relative="1" as="geometry">
            <mxPoint x="51.5" y="-489" as="sourcePoint" />
            <mxPoint x="41.5" y="-594" as="targetPoint" />
          </mxGeometry>
        </mxCell>
        <mxCell id="n7xvBxmtesI49uJ03xCf-42" value="Muscle" style="shape=step;perimeter=stepPerimeter;whiteSpace=wrap;html=1;fixedSize=1;fontFamily=Helvetica;fontSize=18;fillColor=#a0522d;strokeColor=#6D1F00;fontColor=#333333;" parent="n7xvBxmtesI49uJ03xCf-1" vertex="1">
          <mxGeometry x="236.5" y="-574" width="120" height="50" as="geometry" />
        </mxCell>
        <mxCell id="n7xvBxmtesI49uJ03xCf-43" value="" style="edgeStyle=orthogonalEdgeStyle;rounded=0;orthogonalLoop=1;jettySize=auto;html=1;entryX=0.003;entryY=0.596;entryDx=0;entryDy=0;entryPerimeter=0;fontSize=18;fontColor=#333333;" parent="n7xvBxmtesI49uJ03xCf-1" target="n7xvBxmtesI49uJ03xCf-31" edge="1">
          <mxGeometry relative="1" as="geometry">
            <mxPoint x="-63.50000000000091" y="-544" as="sourcePoint" />
            <mxPoint x="-83.5" y="-146" as="targetPoint" />
            <Array as="points">
              <mxPoint x="-163.5" y="-544" />
              <mxPoint x="-163.5" y="-327" />
            </Array>
          </mxGeometry>
        </mxCell>
        <mxCell id="n7xvBxmtesI49uJ03xCf-44" value="&lt;span style=&quot;font-size: 18px;&quot;&gt;Fenêtre coulissante sur l&#39;ASM&lt;/span&gt;" style="rounded=1;whiteSpace=wrap;html=1;fillColor=#60a917;strokeColor=#2D7600;fontColor=#333333;fontSize=18;" parent="n7xvBxmtesI49uJ03xCf-1" vertex="1">
          <mxGeometry x="-258.5" y="-488" width="200" height="90" as="geometry" />
        </mxCell>
        <mxCell id="n7xvBxmtesI49uJ03xCf-45" style="edgeStyle=orthogonalEdgeStyle;rounded=0;orthogonalLoop=1;jettySize=auto;html=1;exitX=0.5;exitY=1;exitDx=0;exitDy=0;fontSize=18;fontColor=#333333;" parent="n7xvBxmtesI49uJ03xCf-1" source="n7xvBxmtesI49uJ03xCf-8" target="n7xvBxmtesI49uJ03xCf-17" edge="1">
          <mxGeometry relative="1" as="geometry">
            <mxPoint x="-25" y="-680" as="sourcePoint" />
            <mxPoint x="-525" y="-160" as="targetPoint" />
            <Array as="points">
              <mxPoint x="-530" y="-630" />
              <mxPoint x="-530" y="-630" />
            </Array>
          </mxGeometry>
        </mxCell>
        <mxCell id="n7xvBxmtesI49uJ03xCf-46" value="RF" style="shape=step;perimeter=stepPerimeter;whiteSpace=wrap;html=1;fixedSize=1;fontFamily=Helvetica;fontSize=18;fillColor=#a0522d;strokeColor=#6D1F00;fontColor=#333333;" parent="n7xvBxmtesI49uJ03xCf-1" vertex="1">
          <mxGeometry x="-820" y="-494" width="120" height="50" as="geometry" />
        </mxCell>
        <mxCell id="n7xvBxmtesI49uJ03xCf-47" style="edgeStyle=orthogonalEdgeStyle;rounded=0;orthogonalLoop=1;jettySize=auto;html=1;entryX=0.5;entryY=0;entryDx=0;entryDy=0;fontFamily=Helvetica;fontSize=18;fontColor=#333333;" parent="n7xvBxmtesI49uJ03xCf-1" source="n7xvBxmtesI49uJ03xCf-48" target="n7xvBxmtesI49uJ03xCf-19" edge="1">
          <mxGeometry relative="1" as="geometry" />
        </mxCell>
        <mxCell id="n7xvBxmtesI49uJ03xCf-48" value="&lt;span style=&quot;font-size: 18px;&quot;&gt;distance RF&amp;nbsp;&lt;/span&gt;&lt;span style=&quot;font-size: 18px;&quot;&gt;&amp;lt;= distance RF seuil&lt;/span&gt;" style="rhombus;whiteSpace=wrap;html=1;fontFamily=Helvetica;fontSize=18;strokeColor=#A50040;fontColor=#333333;fillColor=#D882B5;" parent="n7xvBxmtesI49uJ03xCf-1" vertex="1">
          <mxGeometry x="-704.37" y="-374" width="358.75" height="100" as="geometry" />
        </mxCell>
        <mxCell id="n7xvBxmtesI49uJ03xCf-49" style="edgeStyle=orthogonalEdgeStyle;rounded=0;orthogonalLoop=1;jettySize=auto;html=1;entryX=0.997;entryY=0.565;entryDx=0;entryDy=0;entryPerimeter=0;exitX=1;exitY=0.5;exitDx=0;exitDy=0;fontSize=18;fontColor=#333333;" parent="n7xvBxmtesI49uJ03xCf-1" source="n7xvBxmtesI49uJ03xCf-53" target="n7xvBxmtesI49uJ03xCf-13" edge="1">
          <mxGeometry relative="1" as="geometry">
            <Array as="points">
              <mxPoint x="290" y="77" />
              <mxPoint x="290" y="-160" />
            </Array>
            <mxPoint x="-297.5" y="216" as="sourcePoint" />
            <mxPoint x="109.5" y="-160" as="targetPoint" />
          </mxGeometry>
        </mxCell>
        <mxCell id="n7xvBxmtesI49uJ03xCf-50" value="suivant" style="edgeLabel;html=1;align=center;verticalAlign=middle;resizable=0;points=[];fontSize=18;labelBackgroundColor=none;fontColor=#333333;" parent="n7xvBxmtesI49uJ03xCf-49" vertex="1" connectable="0">
          <mxGeometry x="-0.9109" y="-4" relative="1" as="geometry">
            <mxPoint x="352" y="-21" as="offset" />
          </mxGeometry>
        </mxCell>
        <mxCell id="n7xvBxmtesI49uJ03xCf-51" value="RaxML" style="shape=step;perimeter=stepPerimeter;whiteSpace=wrap;html=1;fixedSize=1;fontFamily=Helvetica;fontSize=18;fillColor=#a0522d;strokeColor=#6D1F00;fontColor=#333333;" parent="n7xvBxmtesI49uJ03xCf-1" vertex="1">
          <mxGeometry x="-820" y="-214" width="120" height="50" as="geometry" />
        </mxCell>
        <mxCell id="n7xvBxmtesI49uJ03xCf-52" style="edgeStyle=orthogonalEdgeStyle;rounded=0;orthogonalLoop=1;jettySize=auto;html=1;fontFamily=Helvetica;fontSize=18;fontColor=#333333;" parent="n7xvBxmtesI49uJ03xCf-1" source="n7xvBxmtesI49uJ03xCf-53" edge="1">
          <mxGeometry relative="1" as="geometry">
            <mxPoint x="-525.0000000000009" y="176" as="targetPoint" />
          </mxGeometry>
        </mxCell>
        <mxCell id="n7xvBxmtesI49uJ03xCf-53" value="&lt;span style=&quot;font-size: 18px;&quot;&gt;valeur bootstrap&amp;nbsp;&lt;/span&gt;&lt;span style=&quot;font-size: 18px;&quot;&gt;&amp;gt; bootstrap seuil&lt;/span&gt;" style="rhombus;whiteSpace=wrap;html=1;fontFamily=Helvetica;fontSize=18;strokeColor=#A50040;fontColor=#333333;fillColor=#D882B5;" parent="n7xvBxmtesI49uJ03xCf-1" vertex="1">
          <mxGeometry x="-693.75" y="37" width="337.5" height="80" as="geometry" />
        </mxCell>
        <mxCell id="n7xvBxmtesI49uJ03xCf-54" style="edgeStyle=orthogonalEdgeStyle;rounded=0;orthogonalLoop=1;jettySize=auto;html=1;entryX=0.996;entryY=0.555;entryDx=0;entryDy=0;entryPerimeter=0;exitX=1;exitY=0.5;exitDx=0;exitDy=0;fontSize=18;fontColor=#333333;" parent="n7xvBxmtesI49uJ03xCf-1" source="n7xvBxmtesI49uJ03xCf-48" target="n7xvBxmtesI49uJ03xCf-13" edge="1">
          <mxGeometry relative="1" as="geometry">
            <Array as="points">
              <mxPoint x="-346" y="40" />
              <mxPoint x="290" y="40" />
              <mxPoint x="290" y="-161" />
            </Array>
            <mxPoint x="-340" y="40" as="sourcePoint" />
            <mxPoint x="60" y="-350" as="targetPoint" />
          </mxGeometry>
        </mxCell>
        <mxCell id="n7xvBxmtesI49uJ03xCf-55" value="suivant" style="edgeLabel;html=1;align=center;verticalAlign=middle;resizable=0;points=[];fontSize=18;labelBackgroundColor=none;fontColor=#333333;" parent="n7xvBxmtesI49uJ03xCf-54" vertex="1" connectable="0">
          <mxGeometry x="-0.9109" y="-4" relative="1" as="geometry">
            <mxPoint x="391" y="293" as="offset" />
          </mxGeometry>
        </mxCell>
        <mxCell id="n7xvBxmtesI49uJ03xCf-56" value="Neightor" style="shape=step;perimeter=stepPerimeter;whiteSpace=wrap;html=1;fixedSize=1;fontFamily=Helvetica;fontSize=18;fillColor=#a0522d;strokeColor=#6D1F00;fontColor=#333333;" parent="n7xvBxmtesI49uJ03xCf-1" vertex="1">
          <mxGeometry x="-820" y="-760" width="120" height="50" as="geometry" />
        </mxCell>
        <mxCell id="rfht0STLepA_Xq5oGGcM-2" value="" style="endArrow=classic;html=1;rounded=0;exitX=0.5;exitY=1;exitDx=0;exitDy=0;fontColor=#333333;" edge="1" parent="n7xvBxmtesI49uJ03xCf-1" source="n7xvBxmtesI49uJ03xCf-7" target="n7xvBxmtesI49uJ03xCf-8">
          <mxGeometry width="50" height="50" relative="1" as="geometry">
            <mxPoint x="-480" y="-720" as="sourcePoint" />
            <mxPoint x="-430" y="-770" as="targetPoint" />
          </mxGeometry>
        </mxCell>
      </root>
    </mxGraphModel>
  </diagram>
  <diagram id="cgqGS_G25pz0PgH2dMWU" name="Page-5">
    <mxGraphModel dx="3694" dy="2608" grid="1" gridSize="10" guides="1" tooltips="1" connect="1" arrows="1" fold="1" page="1" pageScale="1" pageWidth="850" pageHeight="1100" background="#ffffff" math="0" shadow="0">
      <root>
        <mxCell id="0" />
        <mxCell id="1" parent="0" />
        <mxCell id="Ubm4Cf5tvNwmBa3Fpow5-1" value="" style="rounded=1;whiteSpace=wrap;html=1;fontFamily=Helvetica;fontSize=18;fillColor=#60a917;opacity=20;strokeColor=#2D7600;fontColor=#333333;" parent="1" vertex="1">
          <mxGeometry x="-286" y="-784" width="692.5" height="880" as="geometry" />
        </mxCell>
        <mxCell id="Ubm4Cf5tvNwmBa3Fpow5-2" value="&lt;span style=&quot;font-size: 18px;&quot;&gt;Fenêtre coulissante sur l&#39;ASM&lt;/span&gt;" style="rounded=1;whiteSpace=wrap;html=1;fillColor=#60a917;strokeColor=#2D7600;fontColor=#333333;fontSize=18;opacity=60;" parent="1" vertex="1">
          <mxGeometry x="-250" y="-494" width="200" height="90" as="geometry" />
        </mxCell>
        <mxCell id="Ubm4Cf5tvNwmBa3Fpow5-3" value="&lt;span style=&quot;font-size: 18px;&quot;&gt;Alignement Multiple de Séquences (ASM)&lt;br style=&quot;font-size: 18px;&quot;&gt;&lt;/span&gt;" style="rounded=1;whiteSpace=wrap;html=1;fillColor=#60a917;strokeColor=#2D7600;fontColor=#333333;fontSize=18;opacity=40;" parent="1" vertex="1">
          <mxGeometry x="-50" y="-604" width="200" height="90" as="geometry" />
        </mxCell>
        <mxCell id="Ubm4Cf5tvNwmBa3Fpow5-4" value="&lt;font style=&quot;font-size: 18px;&quot;&gt;Création des arbres issus des données climatiques&lt;/font&gt;" style="rounded=1;whiteSpace=wrap;html=1;strokeColor=#666666;fontColor=#333333;fillColor=#D4E1F5;fontSize=18;" parent="1" vertex="1">
          <mxGeometry x="-620" y="-790" width="200" height="90" as="geometry" />
        </mxCell>
        <mxCell id="Ubm4Cf5tvNwmBa3Fpow5-5" value="" style="rounded=1;whiteSpace=wrap;html=1;fontFamily=Helvetica;fontSize=18;fillColor=#26FFB0;opacity=20;fontColor=#333333;" parent="1" vertex="1">
          <mxGeometry x="-840" y="-970" width="520" height="313" as="geometry" />
        </mxCell>
        <mxCell id="Ubm4Cf5tvNwmBa3Fpow5-6" value="" style="rounded=1;whiteSpace=wrap;html=1;fontFamily=Helvetica;fontSize=18;fillColor=#a20025;opacity=20;strokeColor=#6F0000;fontColor=#333333;" parent="1" vertex="1">
          <mxGeometry x="-840" y="-600" width="520" height="875" as="geometry" />
        </mxCell>
        <mxCell id="Ubm4Cf5tvNwmBa3Fpow5-7" style="edgeStyle=orthogonalEdgeStyle;rounded=0;orthogonalLoop=1;jettySize=auto;html=1;entryX=0.5;entryY=0;entryDx=0;entryDy=0;fontSize=18;fontColor=#333333;" parent="1" target="Ubm4Cf5tvNwmBa3Fpow5-8" edge="1">
          <mxGeometry relative="1" as="geometry">
            <mxPoint x="-530.0400000000018" y="-980.0000000000005" as="sourcePoint" />
            <mxPoint x="-530.04" y="-960" as="targetPoint" />
          </mxGeometry>
        </mxCell>
        <mxCell id="Ubm4Cf5tvNwmBa3Fpow5-8" value="&lt;font style=&quot;font-size: 18px;&quot;&gt;Validation des paramètres climatiques&lt;/font&gt;" style="rounded=1;whiteSpace=wrap;html=1;strokeColor=#666666;fontColor=#333333;fillColor=#D4E1F5;fontSize=18;" parent="1" vertex="1">
          <mxGeometry x="-630" y="-940" width="200" height="90" as="geometry" />
        </mxCell>
        <mxCell id="Ubm4Cf5tvNwmBa3Fpow5-9" value="&lt;font style=&quot;font-size: 18px;&quot;&gt;Création des &lt;b&gt;&lt;font color=&quot;#000066&quot;&gt;arbres climatiques&lt;/font&gt;&lt;/b&gt; issus des données climatiques&lt;/font&gt;" style="rounded=1;whiteSpace=wrap;html=1;strokeColor=#666666;fontColor=#333333;fillColor=#D4E1F5;fontSize=18;" parent="1" vertex="1">
          <mxGeometry x="-630" y="-784" width="200" height="90" as="geometry" />
        </mxCell>
        <mxCell id="Ubm4Cf5tvNwmBa3Fpow5-10" style="edgeStyle=orthogonalEdgeStyle;rounded=0;orthogonalLoop=1;jettySize=auto;html=1;entryX=0.5;entryY=0;entryDx=0;entryDy=0;exitX=0.5;exitY=1;exitDx=0;exitDy=0;fontSize=18;fontColor=#333333;" parent="1" source="Ubm4Cf5tvNwmBa3Fpow5-41" target="Ubm4Cf5tvNwmBa3Fpow5-32" edge="1">
          <mxGeometry relative="1" as="geometry">
            <mxPoint x="41.5" y="-451" as="sourcePoint" />
          </mxGeometry>
        </mxCell>
        <mxCell id="Ubm4Cf5tvNwmBa3Fpow5-11" value="&lt;span style=&quot;font-size: 18px;&quot;&gt;Validation des paramètres génétiques&lt;/span&gt;" style="rounded=1;whiteSpace=wrap;html=1;fillColor=#60a917;strokeColor=#2D7600;fontColor=#333333;fontSize=18;" parent="1" vertex="1">
          <mxGeometry x="-58.5" y="-754" width="200" height="90" as="geometry" />
        </mxCell>
        <mxCell id="Ubm4Cf5tvNwmBa3Fpow5-12" value="" style="edgeStyle=orthogonalEdgeStyle;rounded=0;orthogonalLoop=1;jettySize=auto;html=1;exitX=0.5;exitY=1;exitDx=0;exitDy=0;fontSize=18;fontColor=#333333;" parent="1" source="Ubm4Cf5tvNwmBa3Fpow5-32" target="Ubm4Cf5tvNwmBa3Fpow5-14" edge="1">
          <mxGeometry relative="1" as="geometry">
            <Array as="points">
              <mxPoint x="42" y="-250" />
              <mxPoint x="42" y="-250" />
            </Array>
          </mxGeometry>
        </mxCell>
        <mxCell id="Ubm4Cf5tvNwmBa3Fpow5-13" style="edgeStyle=orthogonalEdgeStyle;rounded=0;orthogonalLoop=1;jettySize=auto;html=1;fontFamily=Helvetica;fontSize=18;entryX=0.5;entryY=0;entryDx=0;entryDy=0;fontColor=#333333;" parent="1" source="Ubm4Cf5tvNwmBa3Fpow5-14" target="Ubm4Cf5tvNwmBa3Fpow5-39" edge="1">
          <mxGeometry relative="1" as="geometry">
            <mxPoint x="31.5" y="-84" as="targetPoint" />
            <Array as="points">
              <mxPoint x="42" y="-140" />
              <mxPoint x="42" y="-140" />
            </Array>
          </mxGeometry>
        </mxCell>
        <mxCell id="Ubm4Cf5tvNwmBa3Fpow5-14" value="&lt;span style=&quot;font-size: 18px;&quot;&gt;Calcul du bootstrap de l&#39;arbre consensus issu de l&#39;ASM (&lt;font color=&quot;#006600&quot;&gt;&lt;b&gt;arbres génétiques&lt;/b&gt;&lt;/font&gt;)&lt;/span&gt;" style="rounded=1;whiteSpace=wrap;html=1;fillColor=#60a917;strokeColor=#2D7600;fontColor=#333333;fontSize=18;" parent="1" vertex="1">
          <mxGeometry x="-58.5" y="-250" width="200" height="90" as="geometry" />
        </mxCell>
        <mxCell id="Ubm4Cf5tvNwmBa3Fpow5-15" style="edgeStyle=orthogonalEdgeStyle;rounded=0;orthogonalLoop=1;jettySize=auto;html=1;exitX=0.996;exitY=0.495;exitDx=0;exitDy=0;fontSize=18;entryX=1.007;entryY=0.556;entryDx=0;entryDy=0;entryPerimeter=0;exitPerimeter=0;fontColor=#333333;" parent="1" source="Ubm4Cf5tvNwmBa3Fpow5-39" target="Ubm4Cf5tvNwmBa3Fpow5-14" edge="1">
          <mxGeometry relative="1" as="geometry">
            <Array as="points">
              <mxPoint x="290" y="-80" />
              <mxPoint x="290" y="-200" />
            </Array>
            <mxPoint x="214.75" y="-44" as="sourcePoint" />
            <mxPoint x="141.5" y="-160" as="targetPoint" />
          </mxGeometry>
        </mxCell>
        <mxCell id="Ubm4Cf5tvNwmBa3Fpow5-16" value="suivant" style="edgeLabel;html=1;align=center;verticalAlign=middle;resizable=0;points=[];fontSize=18;labelBackgroundColor=none;rotation=0;fontColor=#333333;" parent="Ubm4Cf5tvNwmBa3Fpow5-15" vertex="1" connectable="0">
          <mxGeometry x="-0.9109" y="-4" relative="1" as="geometry">
            <mxPoint x="26" y="-14" as="offset" />
          </mxGeometry>
        </mxCell>
        <mxCell id="Ubm4Cf5tvNwmBa3Fpow5-17" style="edgeStyle=orthogonalEdgeStyle;rounded=0;orthogonalLoop=1;jettySize=auto;html=1;entryX=0.5;entryY=0;entryDx=0;entryDy=0;fontFamily=Helvetica;fontSize=18;fontColor=#333333;" parent="1" source="Ubm4Cf5tvNwmBa3Fpow5-18" target="Ubm4Cf5tvNwmBa3Fpow5-49" edge="1">
          <mxGeometry relative="1" as="geometry" />
        </mxCell>
        <mxCell id="Ubm4Cf5tvNwmBa3Fpow5-18" value="&lt;span style=&quot;font-size: 18px;&quot;&gt;Calcul de la distance entre chaque paire d&#39;&lt;b&gt;&lt;font color=&quot;#660033&quot;&gt;arbre climatique&lt;/font&gt;&lt;/b&gt; et d&#39;&lt;b&gt;&lt;font color=&quot;#660033&quot;&gt;arbre génétique&lt;/font&gt;&lt;/b&gt;&lt;/span&gt;" style="rounded=1;whiteSpace=wrap;html=1;strokeColor=#A50040;fontColor=#333333;fillColor=#D882B5;fontSize=18;" parent="1" vertex="1">
          <mxGeometry x="-630" y="-559" width="210" height="90" as="geometry" />
        </mxCell>
        <mxCell id="Ubm4Cf5tvNwmBa3Fpow5-19" style="edgeStyle=orthogonalEdgeStyle;rounded=0;orthogonalLoop=1;jettySize=auto;html=1;fontFamily=Helvetica;fontSize=18;fontColor=#333333;" parent="1" source="Ubm4Cf5tvNwmBa3Fpow5-20" target="Ubm4Cf5tvNwmBa3Fpow5-22" edge="1">
          <mxGeometry relative="1" as="geometry" />
        </mxCell>
        <mxCell id="Ubm4Cf5tvNwmBa3Fpow5-20" value="&lt;span style=&quot;font-size: 18px;&quot;&gt;Création de &lt;font color=&quot;#660033&quot;&gt;&lt;b&gt;l&#39;arbre phylogénétique&lt;/b&gt;&lt;/font&gt; le plus parcimonieux&lt;/span&gt;" style="rounded=1;whiteSpace=wrap;html=1;strokeColor=#A50040;fontColor=#333333;fillColor=#D882B5;fontSize=18;" parent="1" vertex="1">
          <mxGeometry x="-625" y="-279" width="200" height="90" as="geometry" />
        </mxCell>
        <mxCell id="Ubm4Cf5tvNwmBa3Fpow5-21" style="edgeStyle=orthogonalEdgeStyle;rounded=0;orthogonalLoop=1;jettySize=auto;html=1;entryX=0.5;entryY=0;entryDx=0;entryDy=0;fontFamily=Helvetica;fontSize=18;fontColor=#333333;" parent="1" source="Ubm4Cf5tvNwmBa3Fpow5-22" target="Ubm4Cf5tvNwmBa3Fpow5-54" edge="1">
          <mxGeometry relative="1" as="geometry" />
        </mxCell>
        <mxCell id="Ubm4Cf5tvNwmBa3Fpow5-22" value="&lt;span style=&quot;font-size: 18px;&quot;&gt;Calcul du bootstrap&lt;br&gt;de l&lt;font color=&quot;#660033&quot;&gt;&lt;b&gt;&#39;arbre phylogénétique&lt;/b&gt;&lt;/font&gt;&amp;nbsp;&lt;/span&gt;" style="rounded=1;whiteSpace=wrap;html=1;strokeColor=#A50040;fontColor=#333333;fillColor=#D882B5;fontSize=18;" parent="1" vertex="1">
          <mxGeometry x="-624.99" y="-149" width="200" height="90" as="geometry" />
        </mxCell>
        <mxCell id="Ubm4Cf5tvNwmBa3Fpow5-23" style="edgeStyle=orthogonalEdgeStyle;rounded=0;orthogonalLoop=1;jettySize=auto;html=1;fontSize=18;fontColor=#333333;" parent="1" source="Ubm4Cf5tvNwmBa3Fpow5-24" target="Ubm4Cf5tvNwmBa3Fpow5-31" edge="1">
          <mxGeometry relative="1" as="geometry" />
        </mxCell>
        <mxCell id="Ubm4Cf5tvNwmBa3Fpow5-24" value="&lt;span style=&quot;font-size: 18px;&quot;&gt;Garder l&#39;ASM et les fichier dans le dossier respectif et ajouter les résultats dans le fichier output.csv&lt;/span&gt;" style="rounded=1;whiteSpace=wrap;html=1;strokeColor=#A50040;fontColor=#333333;fillColor=#D882B5;fontSize=18;" parent="1" vertex="1">
          <mxGeometry x="-640" y="131" width="215" height="100" as="geometry" />
        </mxCell>
        <mxCell id="Ubm4Cf5tvNwmBa3Fpow5-25" value="" style="strokeWidth=2;html=1;shape=mxgraph.flowchart.annotation_2;align=left;labelPosition=right;pointerEvents=1;rotation=-90;direction=south;fontSize=18;fontColor=#333333;" parent="1" vertex="1">
          <mxGeometry x="60.93" y="-378.98" width="237.72" height="83.38" as="geometry" />
        </mxCell>
        <mxCell id="Ubm4Cf5tvNwmBa3Fpow5-26" value="Légende" style="swimlane;fontStyle=0;childLayout=stackLayout;horizontal=1;startSize=26;horizontalStack=0;resizeParent=1;resizeParentMax=0;resizeLast=0;collapsible=1;marginBottom=0;fontSize=18;fontColor=#333333;" parent="1" vertex="1">
          <mxGeometry x="95.02" y="131" width="274.98" height="144" as="geometry" />
        </mxCell>
        <mxCell id="Ubm4Cf5tvNwmBa3Fpow5-27" value="Climatique" style="text;align=left;verticalAlign=top;spacingLeft=4;spacingRight=4;overflow=hidden;rotatable=0;points=[[0,0.5],[1,0.5]];portConstraint=eastwest;strokeColor=#006EAF;fillColor=#26FFB0;fontSize=18;fontColor=#333333;opacity=20;" parent="Ubm4Cf5tvNwmBa3Fpow5-26" vertex="1">
          <mxGeometry y="26" width="274.98" height="42" as="geometry" />
        </mxCell>
        <mxCell id="Ubm4Cf5tvNwmBa3Fpow5-28" value="Génétique" style="text;strokeColor=#d79b00;align=left;verticalAlign=top;spacingLeft=4;spacingRight=4;overflow=hidden;rotatable=0;points=[[0,0.5],[1,0.5]];portConstraint=eastwest;fillColor=#60A917;fontSize=18;fontColor=#333333;opacity=20;" parent="Ubm4Cf5tvNwmBa3Fpow5-26" vertex="1">
          <mxGeometry y="68" width="274.98" height="38" as="geometry" />
        </mxCell>
        <mxCell id="Ubm4Cf5tvNwmBa3Fpow5-29" value="Phylogéographie" style="text;strokeColor=#2D7600;align=left;verticalAlign=top;spacingLeft=4;spacingRight=4;overflow=hidden;rotatable=0;points=[[0,0.5],[1,0.5]];portConstraint=eastwest;fontColor=#333333;fillColor=#A20025;fontSize=18;opacity=20;" parent="Ubm4Cf5tvNwmBa3Fpow5-26" vertex="1">
          <mxGeometry y="106" width="274.98" height="38" as="geometry" />
        </mxCell>
        <mxCell id="Ubm4Cf5tvNwmBa3Fpow5-30" value="Début" style="ellipse;shape=cloud;fillColor=#EA6B66;fontSize=18;fontFamily=Helvetica;fontColor=#333333;" parent="1" vertex="1">
          <mxGeometry x="-625" y="-1090" width="175" height="120" as="geometry" />
        </mxCell>
        <mxCell id="Ubm4Cf5tvNwmBa3Fpow5-31" value="Fin" style="ellipse;shape=cloud;fillColor=#EA6B66;fontSize=18;fontFamily=Helvetica;fontColor=#333333;" parent="1" vertex="1">
          <mxGeometry x="-150" y="121" width="169" height="120" as="geometry" />
        </mxCell>
        <mxCell id="Ubm4Cf5tvNwmBa3Fpow5-32" value="&lt;span style=&quot;font-size: 18px;&quot;&gt;Paquet Phylip&lt;/span&gt;" style="rounded=1;whiteSpace=wrap;html=1;fillColor=#60a917;strokeColor=#2D7600;fontColor=#333333;fontSize=18;" parent="1" vertex="1">
          <mxGeometry x="-58.5" y="-398" width="200" height="90" as="geometry" />
        </mxCell>
        <mxCell id="Ubm4Cf5tvNwmBa3Fpow5-33" value="Neightor" style="shape=step;perimeter=stepPerimeter;whiteSpace=wrap;html=1;fixedSize=1;fontFamily=Helvetica;fontSize=18;fillColor=#a0522d;strokeColor=#6D1F00;fontColor=#333333;" parent="1" vertex="1">
          <mxGeometry x="236.5" y="-270" width="120" height="50" as="geometry" />
        </mxCell>
        <mxCell id="Ubm4Cf5tvNwmBa3Fpow5-34" value="Consense" style="shape=step;perimeter=stepPerimeter;whiteSpace=wrap;html=1;fixedSize=1;fontFamily=Helvetica;fontSize=18;fillColor=#a0522d;strokeColor=#6D1F00;fontColor=#333333;" parent="1" vertex="1">
          <mxGeometry x="236.5" y="-451" width="120" height="50" as="geometry" />
        </mxCell>
        <mxCell id="Ubm4Cf5tvNwmBa3Fpow5-35" value="dnaDist or protDist" style="shape=step;perimeter=stepPerimeter;whiteSpace=wrap;html=1;fixedSize=1;fontFamily=Helvetica;fontSize=18;fillColor=#a0522d;strokeColor=#6D1F00;fontColor=#333333;" parent="1" vertex="1">
          <mxGeometry x="236.5" y="-329" width="120" height="50" as="geometry" />
        </mxCell>
        <mxCell id="Ubm4Cf5tvNwmBa3Fpow5-36" style="edgeStyle=orthogonalEdgeStyle;rounded=0;orthogonalLoop=1;jettySize=auto;html=1;exitX=0.5;exitY=1;exitDx=0;exitDy=0;fontFamily=Helvetica;fontSize=18;fillColor=#a0522d;strokeColor=#6D1F00;fontColor=#333333;" parent="1" source="Ubm4Cf5tvNwmBa3Fpow5-34" target="Ubm4Cf5tvNwmBa3Fpow5-34" edge="1">
          <mxGeometry relative="1" as="geometry" />
        </mxCell>
        <mxCell id="Ubm4Cf5tvNwmBa3Fpow5-37" value="SeqBoot" style="shape=step;perimeter=stepPerimeter;whiteSpace=wrap;html=1;fixedSize=1;fontFamily=Helvetica;fontSize=18;fillColor=#a0522d;strokeColor=#6D1F00;fontColor=#333333;" parent="1" vertex="1">
          <mxGeometry x="236.5" y="-390" width="120" height="50" as="geometry" />
        </mxCell>
        <mxCell id="Ubm4Cf5tvNwmBa3Fpow5-38" style="edgeStyle=orthogonalEdgeStyle;rounded=0;orthogonalLoop=1;jettySize=auto;html=1;entryX=1;entryY=0.5;entryDx=0;entryDy=0;fontFamily=Helvetica;fontSize=18;fontColor=#333333;" parent="1" source="Ubm4Cf5tvNwmBa3Fpow5-39" target="Ubm4Cf5tvNwmBa3Fpow5-18" edge="1">
          <mxGeometry relative="1" as="geometry">
            <Array as="points">
              <mxPoint x="-300" y="-80" />
              <mxPoint x="-300" y="-514" />
            </Array>
          </mxGeometry>
        </mxCell>
        <mxCell id="Ubm4Cf5tvNwmBa3Fpow5-39" value="&lt;span style=&quot;font-size: 18px;&quot;&gt;valeur bootstrap&amp;nbsp;&lt;/span&gt;&lt;span style=&quot;font-size: 18px;&quot;&gt;&amp;gt; bootstrap seuil&lt;/span&gt;" style="rhombus;whiteSpace=wrap;html=1;fontFamily=Helvetica;fontSize=18;fillColor=#60a917;strokeColor=#2D7600;fontColor=#333333;" parent="1" vertex="1">
          <mxGeometry x="-127.25" y="-120" width="337.5" height="80" as="geometry" />
        </mxCell>
        <mxCell id="Ubm4Cf5tvNwmBa3Fpow5-40" style="edgeStyle=orthogonalEdgeStyle;rounded=0;orthogonalLoop=1;jettySize=auto;html=1;fontFamily=Helvetica;fontSize=18;fontColor=#333333;" parent="1" source="Ubm4Cf5tvNwmBa3Fpow5-41" target="Ubm4Cf5tvNwmBa3Fpow5-45" edge="1">
          <mxGeometry relative="1" as="geometry">
            <Array as="points">
              <mxPoint x="-163.5" y="-544" />
            </Array>
          </mxGeometry>
        </mxCell>
        <mxCell id="Ubm4Cf5tvNwmBa3Fpow5-41" value="&lt;span style=&quot;font-size: 18px;&quot;&gt;Alignement Multiple de Séquences (ASM)&lt;br style=&quot;font-size: 18px;&quot;&gt;&lt;/span&gt;" style="rounded=1;whiteSpace=wrap;html=1;fillColor=#60a917;strokeColor=#2D7600;fontColor=#333333;fontSize=18;" parent="1" vertex="1">
          <mxGeometry x="-58.5" y="-594" width="200" height="90" as="geometry" />
        </mxCell>
        <mxCell id="Ubm4Cf5tvNwmBa3Fpow5-42" style="edgeStyle=orthogonalEdgeStyle;rounded=0;orthogonalLoop=1;jettySize=auto;html=1;exitX=0.5;exitY=1;exitDx=0;exitDy=0;fontSize=18;fontColor=#333333;" parent="1" source="Ubm4Cf5tvNwmBa3Fpow5-11" edge="1">
          <mxGeometry relative="1" as="geometry">
            <mxPoint x="51.5" y="-489" as="sourcePoint" />
            <mxPoint x="41.5" y="-594" as="targetPoint" />
          </mxGeometry>
        </mxCell>
        <mxCell id="Ubm4Cf5tvNwmBa3Fpow5-43" value="Muscle" style="shape=step;perimeter=stepPerimeter;whiteSpace=wrap;html=1;fixedSize=1;fontFamily=Helvetica;fontSize=18;fillColor=#a0522d;strokeColor=#6D1F00;fontColor=#333333;" parent="1" vertex="1">
          <mxGeometry x="236.5" y="-574" width="120" height="50" as="geometry" />
        </mxCell>
        <mxCell id="Ubm4Cf5tvNwmBa3Fpow5-44" value="" style="edgeStyle=orthogonalEdgeStyle;rounded=0;orthogonalLoop=1;jettySize=auto;html=1;entryX=0.003;entryY=0.596;entryDx=0;entryDy=0;entryPerimeter=0;fontSize=18;fontColor=#333333;" parent="1" target="Ubm4Cf5tvNwmBa3Fpow5-32" edge="1">
          <mxGeometry relative="1" as="geometry">
            <mxPoint x="-63.50000000000091" y="-544" as="sourcePoint" />
            <mxPoint x="-83.5" y="-146" as="targetPoint" />
            <Array as="points">
              <mxPoint x="-163" y="-544" />
              <mxPoint x="-163" y="-344" />
            </Array>
          </mxGeometry>
        </mxCell>
        <mxCell id="Ubm4Cf5tvNwmBa3Fpow5-45" value="&lt;span style=&quot;font-size: 18px;&quot;&gt;Fenêtre coulissante sur l&#39;ASM&lt;/span&gt;" style="rounded=1;whiteSpace=wrap;html=1;fillColor=#60a917;strokeColor=#2D7600;fontColor=#333333;fontSize=18;" parent="1" vertex="1">
          <mxGeometry x="-258.5" y="-488" width="200" height="90" as="geometry" />
        </mxCell>
        <mxCell id="Ubm4Cf5tvNwmBa3Fpow5-46" style="edgeStyle=orthogonalEdgeStyle;rounded=0;orthogonalLoop=1;jettySize=auto;html=1;exitX=0.5;exitY=1;exitDx=0;exitDy=0;fontSize=18;fontColor=#333333;" parent="1" source="Ubm4Cf5tvNwmBa3Fpow5-9" target="Ubm4Cf5tvNwmBa3Fpow5-18" edge="1">
          <mxGeometry relative="1" as="geometry">
            <mxPoint x="-25" y="-680" as="sourcePoint" />
            <mxPoint x="-525" y="-160" as="targetPoint" />
            <Array as="points">
              <mxPoint x="-530" y="-630" />
              <mxPoint x="-530" y="-630" />
            </Array>
          </mxGeometry>
        </mxCell>
        <mxCell id="Ubm4Cf5tvNwmBa3Fpow5-47" value="RF" style="shape=step;perimeter=stepPerimeter;whiteSpace=wrap;html=1;fixedSize=1;fontFamily=Helvetica;fontSize=18;fillColor=#a0522d;strokeColor=#6D1F00;fontColor=#333333;" parent="1" vertex="1">
          <mxGeometry x="-820" y="-539" width="120" height="50" as="geometry" />
        </mxCell>
        <mxCell id="Ubm4Cf5tvNwmBa3Fpow5-48" style="edgeStyle=orthogonalEdgeStyle;rounded=0;orthogonalLoop=1;jettySize=auto;html=1;entryX=0.5;entryY=0;entryDx=0;entryDy=0;fontFamily=Helvetica;fontSize=18;fontColor=#333333;" parent="1" source="Ubm4Cf5tvNwmBa3Fpow5-49" target="Ubm4Cf5tvNwmBa3Fpow5-20" edge="1">
          <mxGeometry relative="1" as="geometry" />
        </mxCell>
        <mxCell id="Ubm4Cf5tvNwmBa3Fpow5-49" value="&lt;span style=&quot;font-size: 18px;&quot;&gt;distance RF&amp;nbsp;&lt;/span&gt;&lt;span style=&quot;font-size: 18px;&quot;&gt;&amp;lt;= distance RF seuil&lt;/span&gt;" style="rhombus;whiteSpace=wrap;html=1;fontFamily=Helvetica;fontSize=18;strokeColor=#A50040;fontColor=#333333;fillColor=#D882B5;" parent="1" vertex="1">
          <mxGeometry x="-704.37" y="-419" width="358.75" height="100" as="geometry" />
        </mxCell>
        <mxCell id="Ubm4Cf5tvNwmBa3Fpow5-50" style="edgeStyle=orthogonalEdgeStyle;rounded=0;orthogonalLoop=1;jettySize=auto;html=1;entryX=0.997;entryY=0.565;entryDx=0;entryDy=0;entryPerimeter=0;exitX=1;exitY=0.5;exitDx=0;exitDy=0;fontSize=18;fontColor=#333333;" parent="1" source="Ubm4Cf5tvNwmBa3Fpow5-54" target="Ubm4Cf5tvNwmBa3Fpow5-14" edge="1">
          <mxGeometry relative="1" as="geometry">
            <Array as="points">
              <mxPoint x="290" y="32" />
              <mxPoint x="290" y="-200" />
              <mxPoint x="141" y="-200" />
            </Array>
            <mxPoint x="-297.5" y="216" as="sourcePoint" />
            <mxPoint x="109.5" y="-160" as="targetPoint" />
          </mxGeometry>
        </mxCell>
        <mxCell id="Ubm4Cf5tvNwmBa3Fpow5-51" value="suivant" style="edgeLabel;html=1;align=center;verticalAlign=middle;resizable=0;points=[];fontSize=18;labelBackgroundColor=none;fontColor=#333333;" parent="Ubm4Cf5tvNwmBa3Fpow5-50" vertex="1" connectable="0">
          <mxGeometry x="-0.9109" y="-4" relative="1" as="geometry">
            <mxPoint x="352" y="-21" as="offset" />
          </mxGeometry>
        </mxCell>
        <mxCell id="Ubm4Cf5tvNwmBa3Fpow5-52" value="RaxML" style="shape=step;perimeter=stepPerimeter;whiteSpace=wrap;html=1;fixedSize=1;fontFamily=Helvetica;fontSize=18;fillColor=#a0522d;strokeColor=#6D1F00;fontColor=#333333;" parent="1" vertex="1">
          <mxGeometry x="-820" y="-259" width="120" height="50" as="geometry" />
        </mxCell>
        <mxCell id="Ubm4Cf5tvNwmBa3Fpow5-53" style="edgeStyle=orthogonalEdgeStyle;rounded=0;orthogonalLoop=1;jettySize=auto;html=1;fontFamily=Helvetica;fontSize=18;fontColor=#333333;" parent="1" source="Ubm4Cf5tvNwmBa3Fpow5-54" edge="1">
          <mxGeometry relative="1" as="geometry">
            <mxPoint x="-525.0000000000009" y="131" as="targetPoint" />
          </mxGeometry>
        </mxCell>
        <mxCell id="Ubm4Cf5tvNwmBa3Fpow5-54" value="&lt;span style=&quot;font-size: 18px;&quot;&gt;valeur bootstrap&amp;nbsp;&lt;/span&gt;&lt;span style=&quot;font-size: 18px;&quot;&gt;&amp;gt; bootstrap seuil&lt;/span&gt;" style="rhombus;whiteSpace=wrap;html=1;fontFamily=Helvetica;fontSize=18;strokeColor=#A50040;fontColor=#333333;fillColor=#D882B5;" parent="1" vertex="1">
          <mxGeometry x="-693.75" y="-8" width="337.5" height="80" as="geometry" />
        </mxCell>
        <mxCell id="Ubm4Cf5tvNwmBa3Fpow5-55" style="edgeStyle=orthogonalEdgeStyle;rounded=0;orthogonalLoop=1;jettySize=auto;html=1;entryX=0.996;entryY=0.555;entryDx=0;entryDy=0;entryPerimeter=0;exitX=1;exitY=0.5;exitDx=0;exitDy=0;fontSize=18;fontColor=#333333;" parent="1" source="Ubm4Cf5tvNwmBa3Fpow5-49" target="Ubm4Cf5tvNwmBa3Fpow5-14" edge="1">
          <mxGeometry relative="1" as="geometry">
            <Array as="points">
              <mxPoint x="-346" />
              <mxPoint x="290" />
              <mxPoint x="290" y="-200" />
            </Array>
            <mxPoint x="-340" y="40" as="sourcePoint" />
            <mxPoint x="60" y="-350" as="targetPoint" />
          </mxGeometry>
        </mxCell>
        <mxCell id="Ubm4Cf5tvNwmBa3Fpow5-56" value="suivant" style="edgeLabel;html=1;align=center;verticalAlign=middle;resizable=0;points=[];fontSize=18;labelBackgroundColor=none;fontColor=#333333;" parent="Ubm4Cf5tvNwmBa3Fpow5-55" vertex="1" connectable="0">
          <mxGeometry x="-0.9109" y="-4" relative="1" as="geometry">
            <mxPoint x="391" y="293" as="offset" />
          </mxGeometry>
        </mxCell>
        <mxCell id="Ubm4Cf5tvNwmBa3Fpow5-57" value="Neightor" style="shape=step;perimeter=stepPerimeter;whiteSpace=wrap;html=1;fixedSize=1;fontFamily=Helvetica;fontSize=18;fillColor=#a0522d;strokeColor=#6D1F00;fontColor=#333333;" parent="1" vertex="1">
          <mxGeometry x="-820" y="-760" width="120" height="50" as="geometry" />
        </mxCell>
        <mxCell id="Ubm4Cf5tvNwmBa3Fpow5-58" value="" style="endArrow=classic;html=1;rounded=0;exitX=0.5;exitY=1;exitDx=0;exitDy=0;fontColor=#333333;" parent="1" source="Ubm4Cf5tvNwmBa3Fpow5-8" target="Ubm4Cf5tvNwmBa3Fpow5-9" edge="1">
          <mxGeometry width="50" height="50" relative="1" as="geometry">
            <mxPoint x="-480" y="-720" as="sourcePoint" />
            <mxPoint x="-430" y="-770" as="targetPoint" />
          </mxGeometry>
        </mxCell>
        <mxCell id="Ubm4Cf5tvNwmBa3Fpow5-59" value="oui" style="edgeLabel;html=1;align=center;verticalAlign=middle;resizable=0;points=[];fontSize=18;labelBackgroundColor=none;rotation=0;fontColor=#333333;" parent="1" vertex="1" connectable="0">
          <mxGeometry x="-509.9982076428023" y="-304.0011197191185" as="geometry">
            <mxPoint x="7" as="offset" />
          </mxGeometry>
        </mxCell>
        <mxCell id="Ubm4Cf5tvNwmBa3Fpow5-60" value="oui" style="edgeLabel;html=1;align=center;verticalAlign=middle;resizable=0;points=[];fontSize=18;labelBackgroundColor=none;rotation=0;fontColor=#333333;" parent="1" vertex="1" connectable="0">
          <mxGeometry x="-509.9982076428023" y="95.99888028088151" as="geometry">
            <mxPoint x="7" as="offset" />
          </mxGeometry>
        </mxCell>
        <mxCell id="Ubm4Cf5tvNwmBa3Fpow5-61" value="oui" style="edgeLabel;html=1;align=center;verticalAlign=middle;resizable=0;points=[];fontSize=18;labelBackgroundColor=none;rotation=0;fontColor=#333333;" parent="1" vertex="1" connectable="0">
          <mxGeometry x="-158.4982076428023" y="-90.00111971911849" as="geometry">
            <mxPoint x="7" as="offset" />
          </mxGeometry>
        </mxCell>
      </root>
    </mxGraphModel>
  </diagram>
  <diagram id="_C1_ocdXs4wG3Py00vUn" name="Page-6">
    <mxGraphModel dx="3694" dy="2608" grid="1" gridSize="10" guides="1" tooltips="1" connect="1" arrows="1" fold="1" page="1" pageScale="1" pageWidth="850" pageHeight="1100" math="0" shadow="0">
      <root>
        <mxCell id="0" />
        <mxCell id="1" parent="0" />
        <mxCell id="GG_y0LI38G6kwXoI29Fl-1" value="" style="rounded=1;whiteSpace=wrap;html=1;fontFamily=Helvetica;fontSize=18;fillColor=#60a917;opacity=20;strokeColor=#2D7600;fontColor=#333333;" vertex="1" parent="1">
          <mxGeometry x="-286" y="-784" width="692.5" height="880" as="geometry" />
        </mxCell>
        <mxCell id="GG_y0LI38G6kwXoI29Fl-2" value="&lt;span style=&quot;font-size: 18px;&quot;&gt;Fenêtre coulissante sur l&#39;ASM&lt;/span&gt;" style="rounded=1;whiteSpace=wrap;html=1;fillColor=#60a917;strokeColor=#2D7600;fontColor=#333333;fontSize=18;opacity=60;" vertex="1" parent="1">
          <mxGeometry x="-250" y="-494" width="200" height="90" as="geometry" />
        </mxCell>
        <mxCell id="GG_y0LI38G6kwXoI29Fl-3" value="&lt;span style=&quot;font-size: 18px;&quot;&gt;Alignement Multiple de Séquences (ASM)&lt;br style=&quot;font-size: 18px;&quot;&gt;&lt;/span&gt;" style="rounded=1;whiteSpace=wrap;html=1;fillColor=#60a917;strokeColor=#2D7600;fontColor=#333333;fontSize=18;opacity=40;" vertex="1" parent="1">
          <mxGeometry x="-50" y="-604" width="200" height="90" as="geometry" />
        </mxCell>
        <mxCell id="GG_y0LI38G6kwXoI29Fl-4" value="&lt;font style=&quot;font-size: 18px;&quot;&gt;Création des arbres issus des données climatiques&lt;/font&gt;" style="rounded=1;whiteSpace=wrap;html=1;strokeColor=#666666;fontColor=#333333;fillColor=#D4E1F5;fontSize=18;" vertex="1" parent="1">
          <mxGeometry x="-620" y="-790" width="200" height="90" as="geometry" />
        </mxCell>
        <mxCell id="GG_y0LI38G6kwXoI29Fl-5" value="" style="rounded=1;whiteSpace=wrap;html=1;fontFamily=Helvetica;fontSize=18;fillColor=#26FFB0;opacity=20;fontColor=#333333;" vertex="1" parent="1">
          <mxGeometry x="-840" y="-970" width="520" height="313" as="geometry" />
        </mxCell>
        <mxCell id="GG_y0LI38G6kwXoI29Fl-6" value="" style="rounded=1;whiteSpace=wrap;html=1;fontFamily=Helvetica;fontSize=18;fillColor=#a20025;opacity=20;strokeColor=#6F0000;fontColor=#333333;" vertex="1" parent="1">
          <mxGeometry x="-840" y="-600" width="520" height="875" as="geometry" />
        </mxCell>
        <mxCell id="GG_y0LI38G6kwXoI29Fl-7" style="edgeStyle=orthogonalEdgeStyle;rounded=0;orthogonalLoop=1;jettySize=auto;html=1;entryX=0.5;entryY=0;entryDx=0;entryDy=0;fontSize=18;fontColor=#333333;" edge="1" parent="1" target="GG_y0LI38G6kwXoI29Fl-8">
          <mxGeometry relative="1" as="geometry">
            <mxPoint x="-530.0400000000018" y="-980.0000000000005" as="sourcePoint" />
            <mxPoint x="-530.04" y="-960" as="targetPoint" />
          </mxGeometry>
        </mxCell>
        <mxCell id="GG_y0LI38G6kwXoI29Fl-8" value="&lt;font style=&quot;font-size: 18px;&quot;&gt;Validation des paramètres climatiques&lt;/font&gt;" style="rounded=1;whiteSpace=wrap;html=1;strokeColor=#666666;fontColor=#333333;fillColor=#D4E1F5;fontSize=18;" vertex="1" parent="1">
          <mxGeometry x="-630" y="-940" width="200" height="90" as="geometry" />
        </mxCell>
        <mxCell id="GG_y0LI38G6kwXoI29Fl-9" value="&lt;font style=&quot;font-size: 18px;&quot;&gt;Création des &lt;b&gt;&lt;font color=&quot;#000066&quot;&gt;arbres climatiques&lt;/font&gt;&lt;/b&gt; issus des données climatiques&lt;/font&gt;" style="rounded=1;whiteSpace=wrap;html=1;strokeColor=#666666;fontColor=#333333;fillColor=#D4E1F5;fontSize=18;" vertex="1" parent="1">
          <mxGeometry x="-630" y="-784" width="200" height="90" as="geometry" />
        </mxCell>
        <mxCell id="GG_y0LI38G6kwXoI29Fl-10" style="edgeStyle=orthogonalEdgeStyle;rounded=0;orthogonalLoop=1;jettySize=auto;html=1;entryX=0.5;entryY=0;entryDx=0;entryDy=0;exitX=0.5;exitY=1;exitDx=0;exitDy=0;fontSize=18;fontColor=#333333;" edge="1" parent="1" source="GG_y0LI38G6kwXoI29Fl-41" target="GG_y0LI38G6kwXoI29Fl-32">
          <mxGeometry relative="1" as="geometry">
            <mxPoint x="41.5" y="-451" as="sourcePoint" />
          </mxGeometry>
        </mxCell>
        <mxCell id="GG_y0LI38G6kwXoI29Fl-11" value="&lt;span style=&quot;font-size: 18px;&quot;&gt;Validation des paramètres génétiques&lt;/span&gt;" style="rounded=1;whiteSpace=wrap;html=1;fillColor=#60a917;strokeColor=#2D7600;fontColor=#333333;fontSize=18;" vertex="1" parent="1">
          <mxGeometry x="-58.5" y="-754" width="200" height="90" as="geometry" />
        </mxCell>
        <mxCell id="GG_y0LI38G6kwXoI29Fl-12" value="" style="edgeStyle=orthogonalEdgeStyle;rounded=0;orthogonalLoop=1;jettySize=auto;html=1;exitX=0.5;exitY=1;exitDx=0;exitDy=0;fontSize=18;fontColor=#333333;" edge="1" parent="1" source="GG_y0LI38G6kwXoI29Fl-32" target="GG_y0LI38G6kwXoI29Fl-14">
          <mxGeometry relative="1" as="geometry">
            <Array as="points">
              <mxPoint x="42" y="-250" />
              <mxPoint x="42" y="-250" />
            </Array>
          </mxGeometry>
        </mxCell>
        <mxCell id="GG_y0LI38G6kwXoI29Fl-13" style="edgeStyle=orthogonalEdgeStyle;rounded=0;orthogonalLoop=1;jettySize=auto;html=1;fontFamily=Helvetica;fontSize=18;entryX=0.5;entryY=0;entryDx=0;entryDy=0;fontColor=#333333;" edge="1" parent="1" source="GG_y0LI38G6kwXoI29Fl-14" target="GG_y0LI38G6kwXoI29Fl-39">
          <mxGeometry relative="1" as="geometry">
            <mxPoint x="31.5" y="-84" as="targetPoint" />
            <Array as="points">
              <mxPoint x="42" y="-140" />
              <mxPoint x="42" y="-140" />
            </Array>
          </mxGeometry>
        </mxCell>
        <mxCell id="GG_y0LI38G6kwXoI29Fl-14" value="&lt;span style=&quot;font-size: 18px;&quot;&gt;Calcul du bootstrap de l&#39;arbre consensus issu de l&#39;ASM (&lt;font color=&quot;#006600&quot;&gt;&lt;b&gt;arbres génétiques&lt;/b&gt;&lt;/font&gt;)&lt;/span&gt;" style="rounded=1;whiteSpace=wrap;html=1;fillColor=#60a917;strokeColor=#2D7600;fontColor=#333333;fontSize=18;" vertex="1" parent="1">
          <mxGeometry x="-58.5" y="-250" width="200" height="90" as="geometry" />
        </mxCell>
        <mxCell id="GG_y0LI38G6kwXoI29Fl-15" style="edgeStyle=orthogonalEdgeStyle;rounded=0;orthogonalLoop=1;jettySize=auto;html=1;exitX=0.996;exitY=0.495;exitDx=0;exitDy=0;fontSize=18;entryX=1.007;entryY=0.556;entryDx=0;entryDy=0;entryPerimeter=0;exitPerimeter=0;fontColor=#333333;" edge="1" parent="1" source="GG_y0LI38G6kwXoI29Fl-39" target="GG_y0LI38G6kwXoI29Fl-14">
          <mxGeometry relative="1" as="geometry">
            <Array as="points">
              <mxPoint x="290" y="-80" />
              <mxPoint x="290" y="-200" />
            </Array>
            <mxPoint x="214.75" y="-44" as="sourcePoint" />
            <mxPoint x="141.5" y="-160" as="targetPoint" />
          </mxGeometry>
        </mxCell>
        <mxCell id="GG_y0LI38G6kwXoI29Fl-16" value="suivant" style="edgeLabel;html=1;align=center;verticalAlign=middle;resizable=0;points=[];fontSize=18;labelBackgroundColor=none;rotation=0;fontColor=#333333;" vertex="1" connectable="0" parent="GG_y0LI38G6kwXoI29Fl-15">
          <mxGeometry x="-0.9109" y="-4" relative="1" as="geometry">
            <mxPoint x="26" y="-14" as="offset" />
          </mxGeometry>
        </mxCell>
        <mxCell id="GG_y0LI38G6kwXoI29Fl-17" style="edgeStyle=orthogonalEdgeStyle;rounded=0;orthogonalLoop=1;jettySize=auto;html=1;entryX=0.5;entryY=0;entryDx=0;entryDy=0;fontFamily=Helvetica;fontSize=18;fontColor=#333333;" edge="1" parent="1" source="GG_y0LI38G6kwXoI29Fl-18" target="GG_y0LI38G6kwXoI29Fl-49">
          <mxGeometry relative="1" as="geometry" />
        </mxCell>
        <mxCell id="GG_y0LI38G6kwXoI29Fl-18" value="&lt;span style=&quot;font-size: 18px;&quot;&gt;Calcul de la distance entre chaque paire d&#39;&lt;b&gt;&lt;font color=&quot;#660033&quot;&gt;arbre climatique&lt;/font&gt;&lt;/b&gt; et d&#39;&lt;b&gt;&lt;font color=&quot;#660033&quot;&gt;arbre génétique&lt;/font&gt;&lt;/b&gt;&lt;/span&gt;" style="rounded=1;whiteSpace=wrap;html=1;strokeColor=#A50040;fontColor=#333333;fillColor=#D882B5;fontSize=18;" vertex="1" parent="1">
          <mxGeometry x="-630" y="-559" width="210" height="90" as="geometry" />
        </mxCell>
        <mxCell id="GG_y0LI38G6kwXoI29Fl-19" style="edgeStyle=orthogonalEdgeStyle;rounded=0;orthogonalLoop=1;jettySize=auto;html=1;fontFamily=Helvetica;fontSize=18;fontColor=#333333;" edge="1" parent="1" source="GG_y0LI38G6kwXoI29Fl-20" target="GG_y0LI38G6kwXoI29Fl-22">
          <mxGeometry relative="1" as="geometry" />
        </mxCell>
        <mxCell id="GG_y0LI38G6kwXoI29Fl-20" value="&lt;span style=&quot;font-size: 18px;&quot;&gt;Création de &lt;font color=&quot;#660033&quot;&gt;&lt;b&gt;l&#39;arbre phylogénétique&lt;/b&gt;&lt;/font&gt; le plus parcimonieux&lt;/span&gt;" style="rounded=1;whiteSpace=wrap;html=1;strokeColor=#A50040;fontColor=#333333;fillColor=#D882B5;fontSize=18;" vertex="1" parent="1">
          <mxGeometry x="-625" y="-279" width="200" height="90" as="geometry" />
        </mxCell>
        <mxCell id="GG_y0LI38G6kwXoI29Fl-21" style="edgeStyle=orthogonalEdgeStyle;rounded=0;orthogonalLoop=1;jettySize=auto;html=1;entryX=0.5;entryY=0;entryDx=0;entryDy=0;fontFamily=Helvetica;fontSize=18;fontColor=#333333;" edge="1" parent="1" source="GG_y0LI38G6kwXoI29Fl-22" target="GG_y0LI38G6kwXoI29Fl-54">
          <mxGeometry relative="1" as="geometry" />
        </mxCell>
        <mxCell id="GG_y0LI38G6kwXoI29Fl-22" value="&lt;span style=&quot;font-size: 18px;&quot;&gt;Calcul du bootstrap&lt;br&gt;de l&lt;font color=&quot;#660033&quot;&gt;&lt;b&gt;&#39;arbre phylogénétique&lt;/b&gt;&lt;/font&gt;&amp;nbsp;&lt;/span&gt;" style="rounded=1;whiteSpace=wrap;html=1;strokeColor=#A50040;fontColor=#333333;fillColor=#D882B5;fontSize=18;" vertex="1" parent="1">
          <mxGeometry x="-624.99" y="-149" width="200" height="90" as="geometry" />
        </mxCell>
        <mxCell id="GG_y0LI38G6kwXoI29Fl-23" style="edgeStyle=orthogonalEdgeStyle;rounded=0;orthogonalLoop=1;jettySize=auto;html=1;fontSize=18;fontColor=#333333;" edge="1" parent="1" source="GG_y0LI38G6kwXoI29Fl-24" target="GG_y0LI38G6kwXoI29Fl-31">
          <mxGeometry relative="1" as="geometry" />
        </mxCell>
        <mxCell id="GG_y0LI38G6kwXoI29Fl-24" value="&lt;span style=&quot;font-size: 18px;&quot;&gt;Garder l&#39;ASM et les fichier dans le dossier respectif et ajouter les résultats dans le fichier output.csv&lt;/span&gt;" style="rounded=1;whiteSpace=wrap;html=1;strokeColor=#A50040;fontColor=#333333;fillColor=#D882B5;fontSize=18;" vertex="1" parent="1">
          <mxGeometry x="-640" y="131" width="215" height="100" as="geometry" />
        </mxCell>
        <mxCell id="GG_y0LI38G6kwXoI29Fl-25" value="" style="strokeWidth=2;html=1;shape=mxgraph.flowchart.annotation_2;align=left;labelPosition=right;pointerEvents=1;rotation=-90;direction=south;fontSize=18;fontColor=#333333;" vertex="1" parent="1">
          <mxGeometry x="60.93" y="-378.98" width="237.72" height="83.38" as="geometry" />
        </mxCell>
        <mxCell id="GG_y0LI38G6kwXoI29Fl-26" value="Légende" style="swimlane;fontStyle=0;childLayout=stackLayout;horizontal=1;startSize=26;horizontalStack=0;resizeParent=1;resizeParentMax=0;resizeLast=0;collapsible=1;marginBottom=0;fontSize=18;fontColor=#333333;" vertex="1" parent="1">
          <mxGeometry x="95.02" y="131" width="274.98" height="144" as="geometry" />
        </mxCell>
        <mxCell id="GG_y0LI38G6kwXoI29Fl-27" value="Climatique" style="text;align=left;verticalAlign=top;spacingLeft=4;spacingRight=4;overflow=hidden;rotatable=0;points=[[0,0.5],[1,0.5]];portConstraint=eastwest;strokeColor=#006EAF;fillColor=#26FFB0;fontSize=18;fontColor=#333333;opacity=20;" vertex="1" parent="GG_y0LI38G6kwXoI29Fl-26">
          <mxGeometry y="26" width="274.98" height="42" as="geometry" />
        </mxCell>
        <mxCell id="GG_y0LI38G6kwXoI29Fl-28" value="Génétique" style="text;strokeColor=#d79b00;align=left;verticalAlign=top;spacingLeft=4;spacingRight=4;overflow=hidden;rotatable=0;points=[[0,0.5],[1,0.5]];portConstraint=eastwest;fillColor=#60A917;fontSize=18;fontColor=#333333;opacity=20;" vertex="1" parent="GG_y0LI38G6kwXoI29Fl-26">
          <mxGeometry y="68" width="274.98" height="38" as="geometry" />
        </mxCell>
        <mxCell id="GG_y0LI38G6kwXoI29Fl-29" value="Phylogéographie" style="text;strokeColor=#2D7600;align=left;verticalAlign=top;spacingLeft=4;spacingRight=4;overflow=hidden;rotatable=0;points=[[0,0.5],[1,0.5]];portConstraint=eastwest;fontColor=#333333;fillColor=#A20025;fontSize=18;opacity=20;" vertex="1" parent="GG_y0LI38G6kwXoI29Fl-26">
          <mxGeometry y="106" width="274.98" height="38" as="geometry" />
        </mxCell>
        <mxCell id="GG_y0LI38G6kwXoI29Fl-30" value="Début" style="ellipse;shape=cloud;fillColor=#EA6B66;fontSize=18;fontFamily=Helvetica;fontColor=#333333;" vertex="1" parent="1">
          <mxGeometry x="-625" y="-1090" width="175" height="120" as="geometry" />
        </mxCell>
        <mxCell id="GG_y0LI38G6kwXoI29Fl-31" value="Fin" style="ellipse;shape=cloud;fillColor=#EA6B66;fontSize=18;fontFamily=Helvetica;fontColor=#333333;" vertex="1" parent="1">
          <mxGeometry x="-150" y="121" width="169" height="120" as="geometry" />
        </mxCell>
        <mxCell id="GG_y0LI38G6kwXoI29Fl-32" value="&lt;span style=&quot;font-size: 18px;&quot;&gt;Paquet Phylip&lt;/span&gt;" style="rounded=1;whiteSpace=wrap;html=1;fillColor=#60a917;strokeColor=#2D7600;fontColor=#333333;fontSize=18;" vertex="1" parent="1">
          <mxGeometry x="-58.5" y="-398" width="200" height="90" as="geometry" />
        </mxCell>
        <mxCell id="GG_y0LI38G6kwXoI29Fl-33" value="Neightor" style="shape=step;perimeter=stepPerimeter;whiteSpace=wrap;html=1;fixedSize=1;fontFamily=Helvetica;fontSize=18;fillColor=#a0522d;strokeColor=#6D1F00;fontColor=#333333;" vertex="1" parent="1">
          <mxGeometry x="236.5" y="-270" width="120" height="50" as="geometry" />
        </mxCell>
        <mxCell id="GG_y0LI38G6kwXoI29Fl-34" value="Consense" style="shape=step;perimeter=stepPerimeter;whiteSpace=wrap;html=1;fixedSize=1;fontFamily=Helvetica;fontSize=18;fillColor=#a0522d;strokeColor=#6D1F00;fontColor=#333333;" vertex="1" parent="1">
          <mxGeometry x="236.5" y="-451" width="120" height="50" as="geometry" />
        </mxCell>
        <mxCell id="GG_y0LI38G6kwXoI29Fl-35" value="dnaDist or protDist" style="shape=step;perimeter=stepPerimeter;whiteSpace=wrap;html=1;fixedSize=1;fontFamily=Helvetica;fontSize=18;fillColor=#a0522d;strokeColor=#6D1F00;fontColor=#333333;" vertex="1" parent="1">
          <mxGeometry x="236.5" y="-329" width="120" height="50" as="geometry" />
        </mxCell>
        <mxCell id="GG_y0LI38G6kwXoI29Fl-36" style="edgeStyle=orthogonalEdgeStyle;rounded=0;orthogonalLoop=1;jettySize=auto;html=1;exitX=0.5;exitY=1;exitDx=0;exitDy=0;fontFamily=Helvetica;fontSize=18;fillColor=#a0522d;strokeColor=#6D1F00;fontColor=#333333;" edge="1" parent="1" source="GG_y0LI38G6kwXoI29Fl-34" target="GG_y0LI38G6kwXoI29Fl-34">
          <mxGeometry relative="1" as="geometry" />
        </mxCell>
        <mxCell id="GG_y0LI38G6kwXoI29Fl-37" value="SeqBoot" style="shape=step;perimeter=stepPerimeter;whiteSpace=wrap;html=1;fixedSize=1;fontFamily=Helvetica;fontSize=18;fillColor=#a0522d;strokeColor=#6D1F00;fontColor=#333333;" vertex="1" parent="1">
          <mxGeometry x="236.5" y="-390" width="120" height="50" as="geometry" />
        </mxCell>
        <mxCell id="GG_y0LI38G6kwXoI29Fl-38" style="edgeStyle=orthogonalEdgeStyle;rounded=0;orthogonalLoop=1;jettySize=auto;html=1;entryX=1;entryY=0.5;entryDx=0;entryDy=0;fontFamily=Helvetica;fontSize=18;fontColor=#333333;" edge="1" parent="1" source="GG_y0LI38G6kwXoI29Fl-39" target="GG_y0LI38G6kwXoI29Fl-18">
          <mxGeometry relative="1" as="geometry">
            <Array as="points">
              <mxPoint x="-300" y="-80" />
              <mxPoint x="-300" y="-514" />
            </Array>
          </mxGeometry>
        </mxCell>
        <mxCell id="GG_y0LI38G6kwXoI29Fl-39" value="&lt;span style=&quot;font-size: 18px;&quot;&gt;valeur bootstrap&amp;nbsp;&lt;/span&gt;&lt;span style=&quot;font-size: 18px;&quot;&gt;&amp;gt; bootstrap seuil&lt;/span&gt;" style="rhombus;whiteSpace=wrap;html=1;fontFamily=Helvetica;fontSize=18;fillColor=#60a917;strokeColor=#2D7600;fontColor=#333333;" vertex="1" parent="1">
          <mxGeometry x="-127.25" y="-120" width="337.5" height="80" as="geometry" />
        </mxCell>
        <mxCell id="GG_y0LI38G6kwXoI29Fl-40" style="edgeStyle=orthogonalEdgeStyle;rounded=0;orthogonalLoop=1;jettySize=auto;html=1;fontFamily=Helvetica;fontSize=18;fontColor=#333333;" edge="1" parent="1" source="GG_y0LI38G6kwXoI29Fl-41" target="GG_y0LI38G6kwXoI29Fl-45">
          <mxGeometry relative="1" as="geometry">
            <Array as="points">
              <mxPoint x="-163.5" y="-544" />
            </Array>
          </mxGeometry>
        </mxCell>
        <mxCell id="GG_y0LI38G6kwXoI29Fl-41" value="&lt;span style=&quot;font-size: 18px;&quot;&gt;Alignement Multiple de Séquences (ASM)&lt;br style=&quot;font-size: 18px;&quot;&gt;&lt;/span&gt;" style="rounded=1;whiteSpace=wrap;html=1;fillColor=#60a917;strokeColor=#2D7600;fontColor=#333333;fontSize=18;" vertex="1" parent="1">
          <mxGeometry x="-58.5" y="-594" width="200" height="90" as="geometry" />
        </mxCell>
        <mxCell id="GG_y0LI38G6kwXoI29Fl-42" style="edgeStyle=orthogonalEdgeStyle;rounded=0;orthogonalLoop=1;jettySize=auto;html=1;exitX=0.5;exitY=1;exitDx=0;exitDy=0;fontSize=18;fontColor=#333333;" edge="1" parent="1" source="GG_y0LI38G6kwXoI29Fl-11">
          <mxGeometry relative="1" as="geometry">
            <mxPoint x="51.5" y="-489" as="sourcePoint" />
            <mxPoint x="41.5" y="-594" as="targetPoint" />
          </mxGeometry>
        </mxCell>
        <mxCell id="GG_y0LI38G6kwXoI29Fl-43" value="Muscle" style="shape=step;perimeter=stepPerimeter;whiteSpace=wrap;html=1;fixedSize=1;fontFamily=Helvetica;fontSize=18;fillColor=#a0522d;strokeColor=#6D1F00;fontColor=#333333;" vertex="1" parent="1">
          <mxGeometry x="236.5" y="-574" width="120" height="50" as="geometry" />
        </mxCell>
        <mxCell id="GG_y0LI38G6kwXoI29Fl-44" value="" style="edgeStyle=orthogonalEdgeStyle;rounded=0;orthogonalLoop=1;jettySize=auto;html=1;entryX=0.003;entryY=0.596;entryDx=0;entryDy=0;entryPerimeter=0;fontSize=18;fontColor=#333333;" edge="1" parent="1" target="GG_y0LI38G6kwXoI29Fl-32">
          <mxGeometry relative="1" as="geometry">
            <mxPoint x="-63.50000000000091" y="-544" as="sourcePoint" />
            <mxPoint x="-83.5" y="-146" as="targetPoint" />
            <Array as="points">
              <mxPoint x="-163" y="-544" />
              <mxPoint x="-163" y="-344" />
            </Array>
          </mxGeometry>
        </mxCell>
        <mxCell id="GG_y0LI38G6kwXoI29Fl-45" value="&lt;span style=&quot;font-size: 18px;&quot;&gt;Fenêtre coulissante sur l&#39;ASM&lt;/span&gt;" style="rounded=1;whiteSpace=wrap;html=1;fillColor=#60a917;strokeColor=#2D7600;fontColor=#333333;fontSize=18;" vertex="1" parent="1">
          <mxGeometry x="-258.5" y="-488" width="200" height="90" as="geometry" />
        </mxCell>
        <mxCell id="GG_y0LI38G6kwXoI29Fl-46" style="edgeStyle=orthogonalEdgeStyle;rounded=0;orthogonalLoop=1;jettySize=auto;html=1;exitX=0.5;exitY=1;exitDx=0;exitDy=0;fontSize=18;fontColor=#333333;" edge="1" parent="1" source="GG_y0LI38G6kwXoI29Fl-9" target="GG_y0LI38G6kwXoI29Fl-18">
          <mxGeometry relative="1" as="geometry">
            <mxPoint x="-25" y="-680" as="sourcePoint" />
            <mxPoint x="-525" y="-160" as="targetPoint" />
            <Array as="points">
              <mxPoint x="-530" y="-630" />
              <mxPoint x="-530" y="-630" />
            </Array>
          </mxGeometry>
        </mxCell>
        <mxCell id="GG_y0LI38G6kwXoI29Fl-47" value="RF" style="shape=step;perimeter=stepPerimeter;whiteSpace=wrap;html=1;fixedSize=1;fontFamily=Helvetica;fontSize=18;fillColor=#a0522d;strokeColor=#6D1F00;fontColor=#333333;" vertex="1" parent="1">
          <mxGeometry x="-820" y="-539" width="120" height="50" as="geometry" />
        </mxCell>
        <mxCell id="GG_y0LI38G6kwXoI29Fl-48" style="edgeStyle=orthogonalEdgeStyle;rounded=0;orthogonalLoop=1;jettySize=auto;html=1;entryX=0.5;entryY=0;entryDx=0;entryDy=0;fontFamily=Helvetica;fontSize=18;fontColor=#333333;" edge="1" parent="1" source="GG_y0LI38G6kwXoI29Fl-49" target="GG_y0LI38G6kwXoI29Fl-20">
          <mxGeometry relative="1" as="geometry" />
        </mxCell>
        <mxCell id="GG_y0LI38G6kwXoI29Fl-49" value="&lt;span style=&quot;font-size: 18px;&quot;&gt;distance RF&amp;nbsp;&lt;/span&gt;&lt;span style=&quot;font-size: 18px;&quot;&gt;&amp;lt;= distance RF seuil&lt;/span&gt;" style="rhombus;whiteSpace=wrap;html=1;fontFamily=Helvetica;fontSize=18;strokeColor=#A50040;fontColor=#333333;fillColor=#D882B5;" vertex="1" parent="1">
          <mxGeometry x="-704.37" y="-419" width="358.75" height="100" as="geometry" />
        </mxCell>
        <mxCell id="GG_y0LI38G6kwXoI29Fl-50" style="edgeStyle=orthogonalEdgeStyle;rounded=0;orthogonalLoop=1;jettySize=auto;html=1;entryX=0.997;entryY=0.565;entryDx=0;entryDy=0;entryPerimeter=0;exitX=1;exitY=0.5;exitDx=0;exitDy=0;fontSize=18;fontColor=#333333;" edge="1" parent="1" source="GG_y0LI38G6kwXoI29Fl-54" target="GG_y0LI38G6kwXoI29Fl-14">
          <mxGeometry relative="1" as="geometry">
            <Array as="points">
              <mxPoint x="290" y="32" />
              <mxPoint x="290" y="-200" />
              <mxPoint x="141" y="-200" />
            </Array>
            <mxPoint x="-297.5" y="216" as="sourcePoint" />
            <mxPoint x="109.5" y="-160" as="targetPoint" />
          </mxGeometry>
        </mxCell>
        <mxCell id="GG_y0LI38G6kwXoI29Fl-51" value="suivant" style="edgeLabel;html=1;align=center;verticalAlign=middle;resizable=0;points=[];fontSize=18;labelBackgroundColor=none;fontColor=#333333;" vertex="1" connectable="0" parent="GG_y0LI38G6kwXoI29Fl-50">
          <mxGeometry x="-0.9109" y="-4" relative="1" as="geometry">
            <mxPoint x="352" y="-21" as="offset" />
          </mxGeometry>
        </mxCell>
        <mxCell id="GG_y0LI38G6kwXoI29Fl-52" value="RaxML" style="shape=step;perimeter=stepPerimeter;whiteSpace=wrap;html=1;fixedSize=1;fontFamily=Helvetica;fontSize=18;fillColor=#a0522d;strokeColor=#6D1F00;fontColor=#333333;" vertex="1" parent="1">
          <mxGeometry x="-820" y="-259" width="120" height="50" as="geometry" />
        </mxCell>
        <mxCell id="GG_y0LI38G6kwXoI29Fl-53" style="edgeStyle=orthogonalEdgeStyle;rounded=0;orthogonalLoop=1;jettySize=auto;html=1;fontFamily=Helvetica;fontSize=18;fontColor=#333333;" edge="1" parent="1" source="GG_y0LI38G6kwXoI29Fl-54">
          <mxGeometry relative="1" as="geometry">
            <mxPoint x="-525.0000000000009" y="131" as="targetPoint" />
          </mxGeometry>
        </mxCell>
        <mxCell id="GG_y0LI38G6kwXoI29Fl-54" value="&lt;span style=&quot;font-size: 18px;&quot;&gt;valeur bootstrap&amp;nbsp;&lt;/span&gt;&lt;span style=&quot;font-size: 18px;&quot;&gt;&amp;gt; bootstrap seuil&lt;/span&gt;" style="rhombus;whiteSpace=wrap;html=1;fontFamily=Helvetica;fontSize=18;strokeColor=#A50040;fontColor=#333333;fillColor=#D882B5;" vertex="1" parent="1">
          <mxGeometry x="-693.75" y="-8" width="337.5" height="80" as="geometry" />
        </mxCell>
        <mxCell id="GG_y0LI38G6kwXoI29Fl-55" style="edgeStyle=orthogonalEdgeStyle;rounded=0;orthogonalLoop=1;jettySize=auto;html=1;entryX=0.996;entryY=0.555;entryDx=0;entryDy=0;entryPerimeter=0;exitX=1;exitY=0.5;exitDx=0;exitDy=0;fontSize=18;fontColor=#333333;" edge="1" parent="1" source="GG_y0LI38G6kwXoI29Fl-49" target="GG_y0LI38G6kwXoI29Fl-14">
          <mxGeometry relative="1" as="geometry">
            <Array as="points">
              <mxPoint x="-346" />
              <mxPoint x="290" />
              <mxPoint x="290" y="-200" />
            </Array>
            <mxPoint x="-340" y="40" as="sourcePoint" />
            <mxPoint x="60" y="-350" as="targetPoint" />
          </mxGeometry>
        </mxCell>
        <mxCell id="GG_y0LI38G6kwXoI29Fl-56" value="suivant" style="edgeLabel;html=1;align=center;verticalAlign=middle;resizable=0;points=[];fontSize=18;labelBackgroundColor=none;fontColor=#333333;" vertex="1" connectable="0" parent="GG_y0LI38G6kwXoI29Fl-55">
          <mxGeometry x="-0.9109" y="-4" relative="1" as="geometry">
            <mxPoint x="391" y="293" as="offset" />
          </mxGeometry>
        </mxCell>
        <mxCell id="GG_y0LI38G6kwXoI29Fl-57" value="Neightor" style="shape=step;perimeter=stepPerimeter;whiteSpace=wrap;html=1;fixedSize=1;fontFamily=Helvetica;fontSize=18;fillColor=#a0522d;strokeColor=#6D1F00;fontColor=#333333;" vertex="1" parent="1">
          <mxGeometry x="-820" y="-760" width="120" height="50" as="geometry" />
        </mxCell>
        <mxCell id="GG_y0LI38G6kwXoI29Fl-58" value="" style="endArrow=classic;html=1;rounded=0;exitX=0.5;exitY=1;exitDx=0;exitDy=0;fontColor=#333333;" edge="1" parent="1" source="GG_y0LI38G6kwXoI29Fl-8" target="GG_y0LI38G6kwXoI29Fl-9">
          <mxGeometry width="50" height="50" relative="1" as="geometry">
            <mxPoint x="-480" y="-720" as="sourcePoint" />
            <mxPoint x="-430" y="-770" as="targetPoint" />
          </mxGeometry>
        </mxCell>
        <mxCell id="GG_y0LI38G6kwXoI29Fl-59" value="oui" style="edgeLabel;html=1;align=center;verticalAlign=middle;resizable=0;points=[];fontSize=18;labelBackgroundColor=none;rotation=0;fontColor=#333333;" vertex="1" connectable="0" parent="1">
          <mxGeometry x="-509.9982076428023" y="-304.0011197191185" as="geometry">
            <mxPoint x="7" as="offset" />
          </mxGeometry>
        </mxCell>
        <mxCell id="GG_y0LI38G6kwXoI29Fl-60" value="oui" style="edgeLabel;html=1;align=center;verticalAlign=middle;resizable=0;points=[];fontSize=18;labelBackgroundColor=none;rotation=0;fontColor=#333333;" vertex="1" connectable="0" parent="1">
          <mxGeometry x="-509.9982076428023" y="95.99888028088151" as="geometry">
            <mxPoint x="7" as="offset" />
          </mxGeometry>
        </mxCell>
        <mxCell id="GG_y0LI38G6kwXoI29Fl-61" value="oui" style="edgeLabel;html=1;align=center;verticalAlign=middle;resizable=0;points=[];fontSize=18;labelBackgroundColor=none;rotation=0;fontColor=#333333;" vertex="1" connectable="0" parent="1">
          <mxGeometry x="-158.4982076428023" y="-90.00111971911849" as="geometry">
            <mxPoint x="7" as="offset" />
          </mxGeometry>
        </mxCell>
      </root>
    </mxGraphModel>
  </diagram>
</mxfile>
